<svg width="52" height="52" viewBox="0 0 52 52" fill="none" xmlns="http://www.w3.org/2000/svg">
<mask id="mask0_4629_809" style="mask-type:alpha" maskUnits="userSpaceOnUse" x="0" y="0" width="52" height="52">
<rect width="52" height="52" fill="#D9D9D9"/>
</mask>
<g mask="url(#mask0_4629_809)">
<path d="M23.8335 34.6667H28.1668V25.5667L31.6335 29.0334L34.6668 26L26.0002 17.3334L17.3335 26L20.3668 29.0334L23.8335 25.5667V34.6667ZM26.0002 47.6667C23.0029 47.6667 20.1863 47.098 17.5502 45.9605C14.9141 44.823 12.621 43.2792 10.671 41.3292C8.721 39.3792 7.17725 37.0862 6.03975 34.45C4.90225 31.8139 4.3335 28.9973 4.3335 26C4.3335 23.0028 4.90225 20.1862 6.03975 17.55C7.17725 14.9139 8.721 12.6209 10.671 10.6709C12.621 8.72087 14.9141 7.17712 17.5502 6.03962C20.1863 4.90212 23.0029 4.33337 26.0002 4.33337C28.9974 4.33337 31.8141 4.90212 34.4502 6.03962C37.0863 7.17712 39.3793 8.72087 41.3293 10.6709C43.2793 12.6209 44.8231 14.9139 45.9606 17.55C47.0981 20.1862 47.6668 23.0028 47.6668 26C47.6668 28.9973 47.0981 31.8139 45.9606 34.45C44.8231 37.0862 43.2793 39.3792 41.3293 41.3292C39.3793 43.2792 37.0863 44.823 34.4502 45.9605C31.8141 47.098 28.9974 47.6667 26.0002 47.6667ZM26.0002 43.3334C30.8391 43.3334 34.9377 41.6542 38.296 38.2959C41.6543 34.9375 43.3335 30.8389 43.3335 26C43.3335 21.1611 41.6543 17.0625 38.296 13.7042C34.9377 10.3459 30.8391 8.66671 26.0002 8.66671C21.1613 8.66671 17.0627 10.3459 13.7043 13.7042C10.346 17.0625 8.66683 21.1611 8.66683 26C8.66683 30.8389 10.346 34.9375 13.7043 38.2959C17.0627 41.6542 21.1613 43.3334 26.0002 43.3334Z" fill="#C2C1C1"/>
</g>
</svg>
