<svg width="42" height="42" viewBox="0 0 42 42" fill="none" xmlns="http://www.w3.org/2000/svg">
<g filter="url(#filter0_i_4854_167)">
<circle cx="21" cy="21" r="21" fill="white"/>
</g>
<mask id="mask0_4854_167" style="mask-type:alpha" maskUnits="userSpaceOnUse" x="9" y="8" width="24" height="24">
<rect x="9" y="8" width="24" height="24" fill="#D9D9D9"/>
</mask>
<g mask="url(#mask0_4854_167)">
<path d="M20.9985 25.5476C22.2615 25.5476 23.3355 25.1056 24.2205 24.2216C25.1053 23.3376 25.5478 22.2642 25.5478 21.0014C25.5478 19.7384 25.1058 18.6644 24.2218 17.7794C23.3378 16.8945 22.2643 16.4521 21.0015 16.4521C19.7385 16.4521 18.6645 16.8941 17.7795 17.7781C16.8947 18.6621 16.4523 19.7355 16.4523 20.9984C16.4523 22.2614 16.8943 23.3354 17.7783 24.2204C18.6623 25.1052 19.7357 25.5476 20.9985 25.5476ZM21 23.3924C20.3278 23.3924 19.7611 23.1616 19.2998 22.7001C18.8383 22.2388 18.6075 21.672 18.6075 20.9999C18.6075 20.3277 18.8383 19.761 19.2998 19.2996C19.7611 18.8381 20.3278 18.6074 21 18.6074C21.6722 18.6074 22.2389 18.8381 22.7003 19.2996C23.1618 19.761 23.3925 20.3277 23.3925 20.9999C23.3925 21.672 23.1618 22.2388 22.7003 22.7001C22.2389 23.1616 21.6722 23.3924 21 23.3924ZM13.0718 29.2031C12.4421 29.2031 11.9055 28.9814 11.462 28.5379C11.0185 28.0944 10.7968 27.5578 10.7968 26.9281V15.0716C10.7968 14.442 11.0185 13.9054 11.462 13.4619C11.9055 13.0184 12.4421 12.7966 13.0718 12.7966H16.0425L17.976 10.7966H24.024L25.9575 12.7966H28.9283C29.5579 12.7966 30.0945 13.0184 30.538 13.4619C30.9815 13.9054 31.2033 14.442 31.2033 15.0716V26.9281C31.2033 27.5578 30.9815 28.0944 30.538 28.5379C30.0945 28.9814 29.5579 29.2031 28.9283 29.2031H13.0718ZM13.0718 26.9281H28.9283V15.0716H24.968L23.0773 13.0716H18.9408L17.0143 15.0716H13.0718V26.9281Z" fill="#1C1B1F"/>
</g>
<defs>
<filter id="filter0_i_4854_167" x="-1" y="-1" width="43" height="43" filterUnits="userSpaceOnUse" color-interpolation-filters="sRGB">
<feFlood flood-opacity="0" result="BackgroundImageFix"/>
<feBlend mode="normal" in="SourceGraphic" in2="BackgroundImageFix" result="shape"/>
<feColorMatrix in="SourceAlpha" type="matrix" values="0 0 0 0 0 0 0 0 0 0 0 0 0 0 0 0 0 0 127 0" result="hardAlpha"/>
<feOffset dx="-1" dy="-1"/>
<feGaussianBlur stdDeviation="1"/>
<feComposite in2="hardAlpha" operator="arithmetic" k2="-1" k3="1"/>
<feColorMatrix type="matrix" values="0 0 0 0 0 0 0 0 0 0 0 0 0 0 0 0 0 0 0.25 0"/>
<feBlend mode="normal" in2="shape" result="effect1_innerShadow_4854_167"/>
</filter>
</defs>
</svg>
