<svg width="150" height="85" viewBox="0 0 150 85" fill="none" xmlns="http://www.w3.org/2000/svg">
<path d="M149.618 45.2783L11.3232 84.9843L0 39.7061L138.296 -1.52588e-05L149.619 45.2783H149.618ZM14.1353 79.7652L144.747 42.2651L135.483 5.21917L4.87092 42.7192L14.1353 79.7652Z" fill="#EF4444" fill-opacity="0.8"/>
<path d="M13.7271 44.2933C14.4104 44.1818 15.1458 44.0136 15.9332 43.7869C16.3017 43.6806 16.6564 43.5725 16.998 43.4601C17.3388 43.3485 17.6781 43.23 18.0156 43.1045C18.1645 43.1751 18.3003 43.1925 18.424 43.1568C18.5712 43.1141 18.6892 43.0313 18.777 42.9075C18.8649 42.7837 18.982 42.7 19.1301 42.6582C19.523 42.5458 19.8841 42.5127 20.2119 42.5597C20.5398 42.6068 20.8757 42.5806 21.2206 42.4821C21.4907 42.4046 21.6973 42.2817 21.8397 42.1135C21.982 41.9452 22.1886 41.8223 22.4587 41.7448C22.6555 41.6881 22.8459 41.662 23.0314 41.6646C23.216 41.6681 23.4072 41.641 23.604 41.5844C23.8993 41.4998 24.1946 41.3935 24.4931 41.2654C24.79 41.1373 25.0739 41.0353 25.3448 40.9568C25.5294 40.9603 25.6734 41.0318 25.7743 41.1721C25.8752 41.3124 26.0183 41.3848 26.2038 41.3874C26.2794 41.4789 26.3657 41.56 26.4625 41.6306C26.5593 41.7021 26.6243 41.8032 26.6569 41.9348C26.6764 42.0141 26.665 42.1021 26.6243 42.198C26.5821 42.2947 26.5812 42.422 26.6211 42.5798C26.661 42.7375 26.7179 42.863 26.7935 42.9537C26.8692 43.0452 26.9204 43.1437 26.9465 43.2483C26.966 43.3276 26.9693 43.4183 26.9554 43.5211C26.9416 43.624 26.9514 43.7416 26.9839 43.8732C27.0238 44.031 27.0685 44.1879 27.1206 44.3422C27.1718 44.4964 27.2149 44.6402 27.2475 44.7719C27.2808 44.9043 27.293 45.0342 27.2857 45.1632C27.2784 45.2922 27.2849 45.3968 27.3044 45.4752C27.3304 45.5807 27.3971 45.6888 27.5037 45.7995C27.6102 45.9102 27.6802 46.0313 27.7136 46.1629C27.7071 46.1368 27.7014 46.1952 27.6981 46.3373C27.694 46.4802 27.6753 46.6406 27.6412 46.8193C27.607 46.9979 27.5509 47.1705 27.4736 47.3335C27.3963 47.4974 27.2832 47.6002 27.136 47.6421C27.0376 47.67 26.9481 47.6822 26.8676 47.6769C26.6252 47.9733 26.2583 48.1912 25.7662 48.3324C25.4953 48.4099 25.2171 48.4553 24.9299 48.4666C24.6428 48.4788 24.3516 48.5267 24.0571 48.6113C23.9335 48.647 23.8188 48.6871 23.7114 48.7316C23.604 48.7769 23.4885 48.817 23.3657 48.8519C23.1192 48.9225 22.8752 48.9713 22.6319 48.9992C22.3879 49.027 22.1561 49.0724 21.9348 49.136C21.6534 49.2737 21.3443 49.3835 21.0091 49.4655C20.674 49.5474 20.3543 49.6398 20.0501 49.7409C19.7458 49.8429 19.475 49.9693 19.2366 50.1227C18.9983 50.2761 18.8348 50.4922 18.7469 50.772C18.7608 51.2488 18.8437 51.7395 18.9967 52.2459C19.1496 52.7523 19.2578 53.2369 19.3204 53.6989C19.6206 53.9516 19.9606 54.1504 20.3397 54.2959C20.7179 54.4415 21.1417 54.4467 21.6086 54.3125C21.6827 54.2916 21.751 54.2506 21.8152 54.1896C21.8795 54.1286 21.9722 54.0806 22.0959 54.0458C22.2675 53.9961 22.4383 53.9412 22.6075 53.8775C22.7759 53.8157 22.959 53.7555 23.1558 53.6989C23.3274 53.6492 23.5015 53.6065 23.6772 53.5707C23.8521 53.535 24.0262 53.4914 24.1986 53.4426C24.5785 53.277 24.9747 53.121 25.3863 52.9746C25.7979 52.829 26.2249 52.6913 26.6675 52.564C27.0116 52.4655 27.3264 52.4594 27.6119 52.5466C27.8966 52.6338 28.1894 52.7479 28.488 52.8883C28.649 53.3223 28.806 53.7642 28.9581 54.2149C29.1102 54.6655 29.2428 55.1144 29.3543 55.5624C29.4137 55.7994 29.4495 56.0505 29.4633 56.3146C29.4763 56.5795 29.5129 56.8297 29.5723 57.0668C29.5853 57.1199 29.6121 57.1757 29.6536 57.2341C29.6943 57.2934 29.7252 57.3622 29.7447 57.4407C29.8236 57.7571 29.7895 58.0421 29.6422 58.2957C29.4942 58.5502 29.3038 58.7603 29.0688 58.9268C28.8337 59.0933 28.5978 59.2318 28.3619 59.3417C28.126 59.4515 27.9462 59.5247 27.8234 59.5596C27.4785 59.6589 27.1531 59.7243 26.8448 59.7557C26.5365 59.7879 26.2103 59.8533 25.8662 59.9518C25.6694 60.0084 25.4855 60.0895 25.3139 60.195C25.1431 60.3013 24.9584 60.3815 24.7616 60.4381C24.4663 60.5227 24.149 60.5715 23.8098 60.5846C23.4698 60.5976 23.1656 60.643 22.8947 60.7205C22.5262 60.826 22.2456 60.9707 22.0536 61.1529C21.8616 61.335 21.7323 61.5276 21.6648 61.7307C21.5972 61.9338 21.568 62.1334 21.5769 62.3278C21.5859 62.523 21.6037 62.6738 21.6306 62.7784C21.6639 62.9109 21.738 63.1288 21.8543 63.4347C21.9706 63.7407 22.0446 63.9594 22.078 64.091C22.1504 64.3813 22.27 64.6219 22.4367 64.8145C22.6035 65.0071 22.7263 65.2607 22.8052 65.5771C22.8247 65.6565 22.8296 65.7541 22.819 65.87C22.8085 65.9859 22.8133 66.0835 22.8329 66.1629L22.8727 66.3206C22.8857 66.3738 22.8866 66.4296 22.8752 66.4897C22.8638 66.5499 22.8646 66.6056 22.8776 66.6588C22.911 66.7913 22.9712 66.9281 23.0598 67.0719C23.1485 67.2158 23.2128 67.3665 23.2518 67.5252C23.2908 67.6838 23.3112 67.8407 23.3104 67.9958C23.3104 68.1519 23.3291 68.3079 23.3689 68.4665C23.3885 68.5458 23.4299 68.633 23.4934 68.7271C23.5568 68.8221 23.6016 68.9224 23.6276 69.0278C23.6675 69.1856 23.6886 69.3495 23.6911 69.5177C23.6935 69.6868 23.7114 69.8367 23.7447 69.9683C23.7952 70.0668 23.8342 70.1688 23.8611 70.2742C23.8871 70.3797 23.9139 70.4852 23.94 70.5906C24.0327 70.9602 24.0685 71.3158 24.0498 71.661C24.0303 72.0052 23.9172 72.292 23.7114 72.5204L23.6008 72.5517C23.5023 72.5796 23.421 72.6241 23.3575 72.6851C23.2933 72.7461 23.2184 72.8167 23.1338 72.8978C22.5498 73.093 21.9308 73.2787 21.2759 73.4521C20.6211 73.6256 20.0135 73.8069 19.4554 73.996C19.3123 73.9524 19.1658 73.9446 19.0154 73.9742C18.8641 74.003 18.6965 74.0169 18.511 74.0134C18.3947 74.0753 18.2808 74.1215 18.1702 74.1538C18.0596 74.1851 17.9424 74.2191 17.8196 74.254C17.5243 74.3385 17.2006 74.3612 16.8483 74.3211C16.4953 74.281 16.2635 74.0378 16.1512 73.589C16.1252 73.4844 16.1105 73.3745 16.1089 73.2621C16.1065 73.1505 16.0935 73.0407 16.0666 72.9353C16.0341 72.8036 15.9503 72.6293 15.8177 72.414C15.6843 72.1979 15.5818 71.946 15.5094 71.6557C15.411 71.2609 15.3963 70.9401 15.4663 70.6935C15.3792 70.6621 15.2995 70.5296 15.2288 70.296C15.1572 70.0624 15.0986 69.8532 15.0522 69.6693C14.9994 69.4584 14.9571 69.2379 14.9262 69.0069C14.8944 68.7768 14.8774 68.5485 14.8741 68.3227C14.7806 68.2652 14.7171 68.1702 14.6846 68.0386C14.665 67.9592 14.6634 67.9035 14.6821 67.8695C14.7 67.8363 14.7025 67.7936 14.6894 67.7405C14.6236 67.4772 14.539 67.2192 14.4365 66.9656C14.334 66.7128 14.2461 66.4418 14.1737 66.1515C14.0818 65.7828 14.055 65.4656 14.094 65.2006C14.007 65.1692 13.9362 65.0699 13.8809 64.9016C13.8256 64.7343 13.7849 64.5975 13.7589 64.492C13.706 64.2811 13.719 64.1224 13.7979 64.0152C13.7719 63.9106 13.7369 63.7999 13.6954 63.6849C13.6531 63.5698 13.6198 63.46 13.5929 63.3545C13.54 63.1436 13.5409 62.9885 13.5945 62.8882C13.5417 62.6773 13.4742 62.4855 13.3912 62.3112C13.3082 62.1378 13.2407 61.9451 13.1878 61.7342C13.1349 61.5233 13.126 61.3281 13.1602 61.1494L13.1504 61.1101C13.0796 60.9332 13.0129 60.7467 12.9519 60.5532C12.8901 60.3588 12.8332 60.1575 12.7803 59.9457C12.7274 59.7348 12.6843 59.536 12.6501 59.3478C12.616 59.1604 12.5883 58.9704 12.5672 58.7786C12.4541 58.6418 12.3744 58.4814 12.328 58.2966C12.2816 58.1127 12.254 57.9227 12.245 57.7274C12.2361 57.5331 12.2084 57.3431 12.1621 57.1583C12.062 57.0746 11.9855 56.9273 11.9327 56.7155C11.9001 56.5839 11.8757 56.4636 11.8619 56.3547C11.8481 56.2466 11.831 56.1516 11.8115 56.0731C11.722 55.9293 11.6716 55.8308 11.6585 55.7785C11.6122 55.5946 11.6016 55.4212 11.6268 55.2582C11.652 55.0961 11.6415 54.9226 11.5951 54.7378C11.5626 54.6062 11.5032 54.4755 11.4178 54.3439C11.3323 54.214 11.2665 54.0554 11.2201 53.8714C11.1412 53.5551 11.0786 53.2273 11.033 52.8874C10.9874 52.5475 10.9224 52.2067 10.8361 51.8641C10.7637 51.5748 10.6759 51.3028 10.5734 51.05C10.4709 50.7973 10.3831 50.5262 10.3107 50.236C10.2643 50.0521 10.2472 49.8804 10.261 49.7208C10.274 49.5622 10.2643 49.4167 10.2309 49.285C10.1984 49.1534 10.139 49.0227 10.0536 48.8911C9.96819 48.7612 9.90881 48.6296 9.87627 48.4971C9.8234 48.2862 9.77947 48.0587 9.74531 47.8146C9.71033 47.5706 9.66722 47.3431 9.61434 47.1322C9.55496 46.8951 9.49639 46.7147 9.43945 46.5892C9.44108 46.278 9.53056 46.0331 9.71033 45.8544C9.88929 45.6757 10.0577 45.4796 10.2155 45.2643C10.5417 45.1989 10.8849 45.1222 11.2445 45.0325C11.604 44.9436 11.9685 44.8459 12.3378 44.7396C12.5834 44.669 12.8234 44.6002 13.0569 44.533C13.2903 44.4659 13.5148 44.3875 13.7296 44.2977L13.7271 44.2933Z" fill="#EF4444" fill-opacity="0.8"/>
<path d="M61.2498 30.5638C61.4597 30.5603 61.6256 30.5403 61.7493 30.5054C61.9461 30.4487 62.1332 30.3816 62.3114 30.3014C62.4895 30.2221 62.6636 30.1576 62.836 30.1079C63.0817 30.0373 63.2729 30.0112 63.4087 30.0278L63.556 29.985C63.9 29.8866 64.2083 29.9319 64.48 30.1219C64.7517 30.3128 64.9266 30.5655 65.0063 30.8819C65.0527 31.0667 65.0844 31.248 65.1031 31.4258C65.121 31.6045 65.1471 31.7596 65.1796 31.8913C65.2617 32.0089 65.3382 32.1571 65.409 32.334C65.4798 32.5118 65.5383 32.6931 65.5839 32.877C65.6498 33.1411 65.6563 33.3791 65.6042 33.5909L65.6441 33.7486C65.6701 33.8541 65.6823 33.957 65.6815 34.0555C65.6799 34.1548 65.6929 34.2577 65.7189 34.3623C65.7523 34.4947 65.8385 34.6316 65.98 34.7745C66.1208 34.9183 66.2184 35.0944 66.2712 35.3053C66.3306 35.5424 66.3778 35.8117 66.4136 36.1116C66.4494 36.4123 66.5063 36.72 66.5852 37.0364C66.7105 37.5375 66.8496 37.935 67.0025 38.2296C66.9594 38.2706 66.944 38.3664 66.9562 38.5181C66.9676 38.6706 66.9806 38.7726 66.9936 38.8249C67.0334 38.9827 67.1018 39.1265 67.1994 39.2529C67.297 39.3801 67.3621 39.51 67.3954 39.6416C67.4149 39.7209 67.4117 39.8133 67.3857 39.9196C67.3596 40.0268 67.3531 40.1053 67.3661 40.1585C67.3995 40.2909 67.4532 40.4025 67.5288 40.4932C67.6045 40.5847 67.659 40.6962 67.6915 40.8278C67.7444 41.0388 67.7509 41.1992 67.7127 41.309C67.6744 41.4197 67.6712 41.54 67.7045 41.6716C67.7444 41.8293 67.794 41.9784 67.855 42.1152C67.9152 42.2538 67.9624 42.388 67.9957 42.5196C68.0421 42.7044 68.0624 42.8395 68.0576 42.9258C68.1462 43.0696 68.2105 43.2204 68.2495 43.379C68.2886 43.5377 68.304 43.6745 68.2927 43.7904C68.2821 43.9064 68.2927 44.0301 68.326 44.1617C68.3659 44.3195 68.422 44.4668 68.4952 44.6002C68.5684 44.7344 68.6213 44.8677 68.6546 44.9994C68.6742 45.0787 68.679 45.2042 68.6701 45.3759C68.7669 45.6592 68.8775 45.9939 69.0012 46.3826C69.124 46.7705 69.2127 47.0703 69.2655 47.2812C69.2989 47.4137 69.3143 47.5567 69.3143 47.7118C69.3143 47.8678 69.3298 48.0108 69.3632 48.1424C69.3827 48.2217 69.4209 48.2949 69.4778 48.3638C69.5348 48.4326 69.5763 48.5198 69.6023 48.6244C69.6357 48.7569 69.6511 48.8998 69.6511 49.055C69.6511 49.211 69.6698 49.367 69.7097 49.5256C69.7357 49.6311 69.7772 49.7182 69.8341 49.7862C69.8911 49.8551 69.9326 49.9423 69.9586 50.0468C70.0115 50.2578 70.0489 50.487 70.0717 50.7345C70.0944 50.9821 70.1384 51.2383 70.2043 51.5016C70.2636 51.7386 70.3385 51.9862 70.4288 52.2416C70.5191 52.4987 70.6004 52.7715 70.6728 53.0609C70.7655 53.4304 70.7973 53.7172 70.7696 53.9229C70.8322 53.9621 70.9038 54.1172 70.9852 54.3901C71.0665 54.6629 71.1308 54.8921 71.1763 55.076C71.2292 55.2869 71.2593 55.4621 71.2682 55.6007C71.2764 55.7402 71.304 55.9014 71.3496 56.0853C71.396 56.2701 71.4521 56.4444 71.5196 56.6083C71.5871 56.773 71.6441 56.9474 71.6896 57.1313C71.7555 57.3954 71.7832 57.6124 71.7742 57.785C71.7645 57.9576 71.7295 58.1092 71.6701 58.2382C71.6099 58.369 71.5351 58.4884 71.444 58.5999C71.3528 58.7106 71.2715 58.8335 71.1999 58.9669L71.1259 58.9878C71.0763 59.0017 71.0389 59.034 71.012 59.0845C70.9852 59.1351 70.9217 59.1743 70.8241 59.2022C70.5109 59.3199 70.1555 59.4288 69.7593 59.5291C69.3623 59.6284 69.0321 59.7304 68.7685 59.835C68.7189 59.8489 68.6864 59.8516 68.6717 59.842C68.6555 59.8324 68.6237 59.835 68.5749 59.8489C68.1568 59.9692 67.733 60.1183 67.3035 60.2987C66.874 60.4782 66.438 60.6316 65.9955 60.7589C65.749 60.8295 65.5082 60.8914 65.2715 60.9454C65.034 60.9986 64.8021 61.0448 64.5744 61.0823C64.3637 61.0858 64.2132 61.0091 64.1213 60.8522C64.0286 60.6953 63.8838 60.5889 63.6853 60.5323L63.6658 60.453C63.6527 60.4007 63.63 60.3649 63.5991 60.3449C63.5682 60.3257 63.5494 60.303 63.5421 60.276C63.5356 60.2499 63.5348 60.1932 63.5397 60.1069C63.5437 60.0206 63.5397 59.9518 63.5275 59.8986C63.4811 59.7147 63.4103 59.5369 63.3152 59.3669C63.2192 59.197 63.1492 59.0192 63.1029 58.8353C63.0768 58.7307 63.0622 58.6208 63.0606 58.5084C63.0581 58.3968 63.0451 58.287 63.0183 58.1816C62.9857 58.0499 62.9507 57.9401 62.9158 57.8512C62.88 57.7632 62.8499 57.6656 62.823 57.5601C62.7905 57.4285 62.7905 57.2725 62.8247 57.0938C62.6913 56.8776 62.5823 56.5987 62.4968 56.2562C62.4708 56.1516 62.444 56.0452 62.4179 55.9398C62.3919 55.8352 62.3773 55.7254 62.3756 55.6129C62.3244 55.5153 62.2813 55.4212 62.2463 55.3323C62.2105 55.2442 62.1772 55.1335 62.1438 55.0019C62.0974 54.818 62.0771 54.6821 62.082 54.5958C62.0242 54.0475 61.9331 53.5019 61.8111 52.958C61.6883 52.415 61.5801 51.9016 61.4857 51.4205C61.428 51.2959 61.3865 51.1808 61.3596 51.0753C61.3336 50.9707 61.3068 50.8644 61.2807 50.7589C61.2344 50.575 61.1978 50.4016 61.1709 50.2395C61.1433 50.0782 61.1067 49.9048 61.0611 49.72C61.0147 49.5361 60.9505 49.3565 60.8675 49.1822C60.7845 49.0088 60.7203 48.8292 60.6739 48.6444C60.6275 48.4605 60.6015 48.2775 60.5958 48.0953C60.5901 47.914 60.5673 47.7432 60.5275 47.5854C60.4762 47.4878 60.438 47.3858 60.4112 47.2795C60.3851 47.1749 60.355 47.0564 60.3225 46.9239C60.2965 46.8193 60.2696 46.7129 60.2436 46.6075C60.2176 46.5029 60.2029 46.3931 60.2013 46.2806C60.1566 46.2083 60.1151 46.0932 60.0752 45.9355C60.0353 45.7777 60.0085 45.6156 59.9939 45.4509C59.9784 45.2861 59.9548 45.1379 59.9223 45.0055C59.8897 44.8738 59.832 44.7492 59.7498 44.6315C59.6677 44.5139 59.6099 44.3892 59.5774 44.2576C59.531 44.0737 59.5115 43.8889 59.518 43.7033C59.5245 43.5185 59.5042 43.3328 59.4586 43.1489L59.4293 43.0304L59.3724 42.9615C59.3211 42.8639 59.2829 42.7619 59.2561 42.6556C59.23 42.551 59.1999 42.4325 59.1674 42.3C59.121 42.1161 59.0844 41.9426 59.0576 41.7805C59.0299 41.6193 59.0128 41.4694 59.0039 41.3299C58.8689 41.0022 58.7412 40.6221 58.62 40.1907C58.4987 39.7593 58.4085 39.4254 58.3499 39.1884C58.3173 39.0567 58.3043 38.926 58.3117 38.797C58.319 38.668 58.3092 38.5512 58.2832 38.4449C58.2506 38.3133 58.1978 38.2087 58.1254 38.1302C58.053 38.0526 58.0009 37.9481 57.9676 37.8156C57.9212 37.6317 57.8984 37.4617 57.8992 37.3057C57.8992 37.1505 57.8805 36.9936 57.8407 36.835C57.7959 36.7627 57.7577 36.6616 57.7243 36.5291C57.6918 36.3975 57.669 36.2554 57.6576 36.1037C57.6454 35.9521 57.6235 35.81 57.5909 35.6784C57.5649 35.5738 57.5137 35.4753 57.438 35.3838L57.3249 35.2469C57.3184 35.2208 57.3192 35.1999 57.3282 35.1824C57.3371 35.1659 57.3388 35.1441 57.3314 35.1179L57.3681 35.1075C57.355 35.0552 57.3493 35.0073 57.3518 34.9637C57.3542 34.921 57.3485 34.873 57.3355 34.8199C57.2957 34.6621 57.2412 34.5226 57.1712 34.4006C57.1012 34.2795 57.05 34.1531 57.0166 34.0215C57.0101 33.9953 56.9939 33.8794 56.9695 33.6746C56.9442 33.4697 56.9402 33.2954 56.9564 33.149C56.8938 33.1106 56.854 33.0304 56.8369 32.9084C56.819 32.7864 56.7881 32.6896 56.7441 32.6173C56.9207 32.4822 57.0508 32.2896 57.133 32.0394C57.2151 31.7901 57.3754 31.5609 57.6129 31.3509C57.9781 31.4441 58.3458 31.4371 58.7151 31.3308C58.9852 31.2532 59.2618 31.146 59.544 31.0083C59.8263 30.8715 60.1143 30.7599 60.4095 30.6754C60.6796 30.5978 60.9602 30.5594 61.2506 30.5612L61.2498 30.5638Z" fill="#EF4444" fill-opacity="0.8"/>
<path d="M75.9657 26.8054C76.2479 27.0913 76.4489 27.4713 76.5668 27.9455C76.6067 28.1032 76.6262 28.261 76.6254 28.4161C76.6254 28.5722 76.6408 28.7151 76.6742 28.8467C76.7075 28.9792 76.7661 29.1099 76.8515 29.2407C76.9369 29.3714 77.0061 29.5423 77.0589 29.7532C77.0785 29.8325 77.0915 29.9632 77.0972 30.1445C77.1029 30.3267 77.0931 30.4208 77.0695 30.4278C77.1094 30.5856 77.1655 30.7329 77.2387 30.8662C77.3119 31.0005 77.368 31.1469 77.4079 31.3047C77.4339 31.4101 77.4461 31.513 77.4453 31.6115C77.4437 31.7108 77.4567 31.8137 77.4827 31.9183C77.5161 32.0507 77.5576 32.1658 77.6088 32.2634C77.6593 32.3619 77.6983 32.4639 77.7252 32.5694C77.7585 32.7018 77.7512 32.8308 77.7032 32.9572C77.7561 33.1681 77.8325 33.3721 77.935 33.5682C78.0367 33.7652 78.114 33.9692 78.1669 34.1792C78.2523 34.5218 78.323 34.8826 78.3783 35.2617C78.4337 35.6418 78.5077 36.0157 78.5996 36.3844C78.633 36.5169 78.6655 36.6485 78.6988 36.7792C78.7322 36.9117 78.7769 37.0398 78.8347 37.1636C78.8477 37.2168 78.8583 37.2839 78.8656 37.3667C78.8729 37.4495 78.8835 37.5175 78.8965 37.5698C78.9095 37.6229 78.9315 37.6587 78.9632 37.6778C79.095 38.2052 79.178 38.6959 79.2129 39.1517C79.2479 39.6076 79.3179 40.0469 79.4236 40.4679C79.4765 40.6788 79.5359 40.8662 79.6042 41.0301C79.6717 41.1948 79.7254 41.3552 79.7645 41.5138C79.7978 41.6463 79.8157 41.8241 79.819 42.049C79.9206 42.2459 79.9882 42.4098 80.0215 42.5414C80.0549 42.6739 80.0793 42.8003 80.0972 42.9223C80.1142 43.0443 80.1362 43.1585 80.1631 43.2631C80.2224 43.5002 80.3087 43.7155 80.4234 43.9081C80.5372 44.1016 80.6243 44.316 80.6837 44.5531C80.8024 45.0272 80.8504 45.3524 80.8285 45.5284C80.8065 45.7045 80.8317 45.9372 80.9041 46.2266C80.957 46.4375 81.0302 46.5996 81.1245 46.7138C81.2189 46.828 81.2897 46.9779 81.3352 47.1618L81.4141 47.4782C81.4865 47.7684 81.7037 47.9245 82.0649 47.948C82.4269 47.9715 82.7921 47.9297 83.1606 47.8242C83.3322 47.7746 83.5031 47.7196 83.6723 47.656C83.8407 47.5941 83.9993 47.541 84.1465 47.4982C84.3434 47.4416 84.5646 47.4067 84.8119 47.3919C85.0584 47.378 85.1942 47.3666 85.2186 47.3597C85.2674 47.3457 85.3594 47.2917 85.4936 47.1958C85.6278 47.1008 85.7685 47.0319 85.9166 46.9901C86.2607 46.8916 86.5974 46.8158 86.9269 46.7635C87.2563 46.7112 87.5931 46.6354 87.9372 46.5369C88.1828 46.4663 88.413 46.3861 88.6278 46.2963C88.8425 46.2065 89.1093 46.1159 89.429 46.0235C89.6503 45.9599 89.8187 45.9477 89.9334 45.9843C90.0481 46.0226 90.1538 46.0767 90.2506 46.1473C90.3474 46.2187 90.432 46.2928 90.5044 46.3713C90.5768 46.4497 90.6769 46.4846 90.807 46.475C90.8404 46.6075 90.8802 46.7155 90.9282 46.8001C90.9754 46.8855 91.0128 46.9805 91.0389 47.086C91.0722 47.2185 91.082 47.3135 91.0714 47.3736C91.1731 47.5706 91.2406 47.7345 91.2739 47.8661C91.3203 48.0509 91.3415 48.2138 91.3374 48.3559C91.3333 48.4989 91.348 48.6357 91.3805 48.7673C91.4334 48.9782 91.5098 49.1534 91.6107 49.2938C91.7116 49.4341 91.7856 49.5971 91.8311 49.781C91.8645 49.9135 91.8645 50.0468 91.8328 50.1828C91.8011 50.3188 91.8019 50.453 91.8344 50.5846C91.8743 50.7424 91.9393 50.8722 92.0304 50.9734C92.1216 51.0745 92.1834 51.1904 92.2167 51.322C92.2501 51.4545 92.2428 51.5835 92.1948 51.7099L92.2444 51.9077C92.3168 52.198 92.2712 52.4368 92.1077 52.625C91.9434 52.8142 91.7799 53.0016 91.6164 53.1899L91.3585 53.2639C91.1617 53.3206 90.9803 53.3868 90.8152 53.4627C90.6492 53.5385 90.48 53.6012 90.3084 53.6501C89.8162 53.7913 89.3152 53.9211 88.8043 54.0397C88.2935 54.1582 87.7924 54.2881 87.3002 54.4293C86.8325 54.5635 86.3794 54.7003 85.9402 54.8407C85.5009 54.981 85.0722 55.1109 84.6541 55.2312C84.5305 55.2669 84.4214 55.2765 84.3255 55.2617C84.2295 55.2468 84.1197 55.2573 83.9968 55.2922C83.8 55.3488 83.6031 55.4334 83.4079 55.5458C83.2119 55.6582 83.0036 55.7463 82.7824 55.8099C82.7083 55.8308 82.6392 55.8439 82.5749 55.8483C82.5098 55.8526 82.4375 55.8517 82.3569 55.8474C82.2471 55.9354 82.0982 55.999 81.9103 56.0391C81.7224 56.0784 81.5736 56.1429 81.4638 56.2309C81.3336 56.2396 81.2197 56.2588 81.1221 56.2867C81.0237 56.3146 80.9131 56.3468 80.7902 56.3817C80.5193 56.4593 80.2403 56.5534 79.9516 56.665C79.6628 56.7756 79.3716 56.8741 79.0763 56.9587C78.0432 57.255 77.089 57.4442 76.2138 57.5261C75.7672 57.4285 75.4808 57.2568 75.3531 57.011C75.2254 56.7652 75.1294 56.5107 75.0635 56.2474C75.031 56.1158 75.0221 55.9773 75.0383 55.8308C75.0546 55.6853 75.0465 55.5467 75.0131 55.4142C74.9733 55.2564 74.9082 55.1266 74.8171 55.0255C74.726 54.9244 74.6641 54.8084 74.6308 54.6768C74.6048 54.5722 74.6088 54.4572 74.6438 54.3343C74.6788 54.2114 74.6804 54.0841 74.6471 53.9525C74.5617 53.6108 74.4575 53.2727 74.3347 52.9406C74.2119 52.6094 74.1012 52.245 74.0028 51.8502C73.9304 51.5608 73.8613 51.2836 73.7954 51.0204C73.7295 50.7572 73.6758 50.4905 73.6343 50.2194C73.5652 50.1549 73.5082 50.0303 73.4619 49.8455C73.422 49.6877 73.3952 49.5256 73.3805 49.3609C73.3651 49.1961 73.3382 49.034 73.2992 48.8763C73.2862 48.824 73.2634 48.7595 73.2317 48.6836C73.1991 48.6078 73.1739 48.5311 73.1536 48.4518C73.1137 48.294 73.1023 48.1424 73.1186 47.9959C73.1349 47.8504 73.1202 47.6848 73.0739 47.5009L73.034 47.3431C73.0682 47.1636 73.0625 46.9823 73.0161 46.7975C72.9836 46.6659 72.9356 46.5316 72.8754 46.3931C72.8144 46.2553 72.768 46.1211 72.7346 45.9886C72.6883 45.8047 72.6663 45.5572 72.6671 45.2451C72.611 45.2338 72.5427 45.1188 72.463 44.9017C72.3824 44.6856 72.284 44.4232 72.1685 44.1182C72.0522 43.8122 71.9456 43.4906 71.848 43.1515C71.7496 42.8134 71.6747 42.5379 71.6219 42.327C71.5958 42.2224 71.569 42.1161 71.5429 42.0106C71.5169 41.906 71.5023 41.7962 71.5006 41.6838C71.3876 41.5469 71.2981 41.3464 71.2322 41.0832C71.1793 40.8723 71.1704 40.6771 71.2046 40.4984C71.2387 40.3188 71.2493 40.2038 71.2363 40.1506C71.1964 39.9928 71.1273 39.8717 71.0264 39.7871C70.9264 39.7035 70.8597 39.5954 70.8271 39.4629C70.7946 39.3313 70.7523 39.1108 70.701 38.8005C70.6498 38.4911 70.6416 38.2461 70.6758 38.0666C70.6067 38.0021 70.5497 37.8774 70.5034 37.6927C70.4635 37.5349 70.4367 37.3728 70.422 37.2081C70.4066 37.0433 70.383 36.8951 70.3504 36.7627C70.1861 36.5282 70.0779 36.3051 70.0251 36.0933C69.9722 35.8823 69.9787 35.6976 70.0438 35.5372C69.9039 35.2949 69.7883 34.9898 69.6956 34.6202C69.6427 34.4093 69.6151 34.2202 69.6126 34.0511C69.6102 33.882 69.589 33.719 69.5492 33.5612C69.4898 33.3242 69.4093 33.108 69.3076 32.9102C69.2051 32.714 69.1286 32.5101 69.0758 32.2992C69.0164 32.0621 69.0099 31.8241 69.0554 31.5853C68.922 31.3692 68.813 31.0902 68.7276 30.7477C68.7081 30.6684 68.6934 30.5882 68.6869 30.5054C68.6796 30.4226 68.669 30.3555 68.656 30.3023C68.6365 30.223 68.6088 30.1402 68.573 30.0504C68.5373 29.9624 68.5137 29.8918 68.5007 29.8386C68.4413 29.6015 68.473 29.388 68.5975 29.1971C68.7211 29.0071 68.8757 28.8354 69.0619 28.6829C69.2474 28.5312 69.4231 28.417 69.589 28.3412C69.7542 28.2662 69.8616 28.2209 69.9112 28.2061C70.0828 28.1564 70.252 28.1224 70.4188 28.1024C70.5847 28.0832 70.7539 28.0483 70.9264 27.9986C71.0736 27.9559 71.2037 27.8975 71.3176 27.8226C71.4307 27.7476 71.5852 27.6822 71.7821 27.6256C72.2246 27.4983 72.7078 27.3746 73.2309 27.2525C73.7539 27.1305 74.2241 27.0094 74.6422 26.89C74.7398 26.8621 74.8106 26.7993 74.8521 26.7026C74.8935 26.6058 74.9635 26.5431 75.0619 26.5152C75.2588 26.4585 75.4239 26.489 75.5589 26.6058C75.6932 26.7226 75.8282 26.7897 75.9648 26.8072L75.9657 26.8054Z" fill="#EF4444" fill-opacity="0.8"/>
<path d="M89.6048 22.3811C89.8081 22.3515 89.9952 22.3114 90.1677 22.2617C90.3393 22.212 90.5239 22.1597 90.7208 22.1031C90.9909 22.0255 91.2479 21.9453 91.4903 21.8608C91.7327 21.7771 91.9768 21.6995 92.2232 21.6289C92.9358 21.4241 93.598 21.2768 94.2081 21.1862C94.2691 21.1121 94.3602 21.058 94.483 21.0223C94.6058 20.9874 94.7287 20.9517 94.8515 20.916C95.4168 20.7538 95.9854 20.6048 96.5581 20.468C97.13 20.332 97.7238 20.176 98.3387 19.999C98.7813 19.8718 99.2116 19.7489 99.6297 19.6286C100.048 19.5083 100.462 19.3758 100.874 19.2294C100.979 19.2277 101.081 19.2128 101.179 19.1841C101.277 19.1562 101.388 19.1239 101.511 19.0891C101.757 19.0185 101.995 18.9435 102.225 18.8624C102.456 18.7823 102.694 18.7064 102.94 18.6358C103.235 18.5513 103.619 18.533 104.092 18.58C104.565 18.628 104.915 18.845 105.145 19.2311C105.129 19.3776 105.102 19.5336 105.064 19.6992C105.027 19.8657 105.028 20.0278 105.068 20.1855C105.101 20.318 105.156 20.4357 105.235 20.5394C105.314 20.644 105.367 20.7495 105.393 20.8541C105.433 21.0118 105.446 21.1713 105.433 21.33C105.42 21.4895 105.437 21.6612 105.482 21.8451C105.522 22.0029 105.574 22.158 105.638 22.3088C105.701 22.4596 105.751 22.6016 105.783 22.7333C105.836 22.9442 105.878 23.1656 105.91 23.3957C105.94 23.6267 105.983 23.848 106.036 24.0581C106.062 24.1636 106.132 24.3414 106.248 24.5898C106.109 24.7711 106.004 24.9567 105.932 25.1459C105.861 25.335 105.665 25.4771 105.346 25.5686C105.075 25.6462 104.814 25.7072 104.562 25.7516C104.309 25.7961 104.06 25.8536 103.814 25.9242C103.543 26.0018 103.276 26.1212 103.014 26.2807C102.75 26.4411 102.459 26.5675 102.14 26.659C101.795 26.7583 101.439 26.8324 101.069 26.8821C100.699 26.9318 100.35 26.9893 100.025 27.0547C99.9331 27.1096 99.8013 27.161 99.6289 27.2107C99.4816 27.2534 99.332 27.2892 99.1815 27.3179C99.031 27.3476 98.8813 27.3833 98.7341 27.4251C98.3656 27.5315 98.0378 27.7241 97.7522 28.0039C97.4667 28.2837 97.3927 28.7003 97.531 29.2538C97.5643 29.3862 97.6042 29.5222 97.653 29.6634C97.701 29.8046 97.7425 29.9415 97.775 30.0731C97.8279 30.284 97.8425 30.4496 97.8198 30.5681C97.9084 30.712 97.9629 30.8235 97.9825 30.9028C97.9955 30.956 98.0012 31.0031 97.9987 31.0467C97.9963 31.0902 98.002 31.1382 98.015 31.1905C98.0874 31.4807 98.2029 31.6803 98.3623 31.7893C98.5218 31.8991 98.6934 31.9557 98.8789 31.9584C99.0635 31.9618 99.2246 31.9435 99.3596 31.9052C99.4947 31.8668 99.5866 31.8398 99.6362 31.8259C99.7908 31.8102 99.9412 31.7805 100.088 31.7387C100.236 31.6969 100.371 31.6577 100.494 31.6219C100.74 31.5513 100.97 31.4711 101.185 31.3814C101.4 31.2916 101.642 31.2079 101.913 31.1303C102.036 31.0955 102.146 31.0632 102.245 31.0353C102.343 31.0074 102.433 30.9961 102.513 31.0005C103.158 30.7311 103.824 30.4975 104.512 30.2997C104.807 30.2151 105.104 30.1367 105.402 30.0652C105.7 29.9938 106.001 29.9293 106.302 29.87L106.376 29.8491C106.424 29.8351 106.446 29.843 106.441 29.8726C106.435 29.9031 106.456 29.9101 106.506 29.8961L106.542 29.8857C106.705 30.0086 106.869 30.1663 107.036 30.3581C107.203 30.5507 107.313 30.752 107.366 30.9621C107.418 31.173 107.43 31.3247 107.401 31.418C107.496 31.5888 107.571 31.7858 107.628 32.0098C107.684 32.2338 107.738 32.4517 107.79 32.6617C107.837 32.8465 107.879 33.0174 107.919 33.1751C107.959 33.3329 107.985 33.495 108 33.6597C108.057 33.7852 108.101 33.9064 108.131 34.0249C108.161 34.1435 108.192 34.269 108.225 34.4006C108.297 34.6908 108.363 35.0316 108.421 35.4239C108.48 35.817 108.421 36.0802 108.244 36.2162C108.21 36.3957 108.108 36.5169 107.94 36.5787C107.771 36.6415 107.65 36.74 107.579 36.8734C107.529 36.8873 107.491 36.8917 107.463 36.8856C107.436 36.8795 107.396 36.8838 107.348 36.8978C107.224 36.9335 107.113 36.9867 107.012 37.0573C106.911 37.1287 106.799 37.1819 106.676 37.2168C106.356 37.3083 106.036 37.3728 105.715 37.4076C105.395 37.4434 105.087 37.5035 104.792 37.5881C104.619 37.6378 104.46 37.7118 104.314 37.8103C104.166 37.9097 104.007 37.9829 103.835 38.0326C103.564 38.1102 103.332 38.1285 103.136 38.0849C102.941 38.0422 102.683 38.0666 102.364 38.1581C102.168 38.2148 101.934 38.2819 101.663 38.3594C101.392 38.437 101.141 38.5381 100.908 38.661C100.676 38.7848 100.482 38.9321 100.327 39.1029C100.172 39.2746 100.121 39.4655 100.174 39.6764C100.187 39.7296 100.204 39.7732 100.227 39.8098C100.249 39.8455 100.267 39.89 100.28 39.9432C100.326 40.1279 100.324 40.277 100.273 40.3903C100.223 40.5045 100.214 40.6265 100.246 40.7581C100.259 40.8113 100.311 40.888 100.402 40.9882C100.494 41.0893 100.555 41.2052 100.589 41.3369C100.622 41.4693 100.642 41.6044 100.651 41.743C100.659 41.8825 100.68 42.0176 100.712 42.1492C100.772 42.3863 100.935 42.5937 101.204 42.7706C101.471 42.9476 101.729 43.0008 101.975 42.9302C102.172 42.8735 102.386 42.7846 102.619 42.6608C102.852 42.5379 103.103 42.4368 103.374 42.3593C103.595 42.2956 103.82 42.2459 104.048 42.2085C104.275 42.1719 104.494 42.1509 104.704 42.1466L104.731 42.0969C104.854 42.062 104.975 42.0202 105.094 41.9714C105.214 41.9234 105.347 41.8773 105.495 41.8354C105.618 41.8005 105.743 41.7718 105.869 41.7491C105.995 41.7273 106.119 41.6986 106.243 41.6628C106.42 41.5277 106.636 41.4162 106.891 41.329C107.145 41.2418 107.408 41.159 107.679 41.0815L108.712 40.7851C108.835 40.7503 108.957 40.7145 109.08 40.6788C109.203 40.6439 109.323 40.5951 109.439 40.5332C109.711 40.5681 109.996 40.7337 110.294 41.0292C110.592 41.3247 110.771 41.5914 110.83 41.8284C110.863 41.9609 110.867 42.1082 110.841 42.2695C110.816 42.4325 110.82 42.5798 110.853 42.7105C110.879 42.816 110.933 42.9275 111.016 43.0452C111.098 43.1629 111.155 43.2875 111.188 43.4191C111.228 43.5769 111.253 43.7329 111.264 43.8846C111.276 44.0371 111.302 44.1914 111.341 44.35C111.367 44.4555 111.404 44.5513 111.452 44.6359C111.499 44.7213 111.536 44.8163 111.562 44.9218C111.615 45.1327 111.644 45.3288 111.65 45.511C111.656 45.6931 111.682 45.8762 111.728 46.0601C111.766 46.1063 111.801 46.1943 111.834 46.3259C111.88 46.5107 111.866 46.6911 111.792 46.8672C111.718 47.0441 111.619 47.2063 111.498 47.3536C111.377 47.5009 111.249 47.622 111.115 47.7179C110.981 47.8129 110.876 47.8713 110.802 47.8922C110.457 47.9916 110.078 48.0787 109.663 48.1563C109.247 48.2339 108.842 48.328 108.449 48.4413L107.343 48.7586L107.232 48.79L106.974 48.8641C106.876 48.892 106.795 48.8867 106.734 48.8484C106.648 48.9294 106.495 49.0018 106.274 49.0654L105.831 49.1927C105.635 49.2493 105.439 49.3121 105.247 49.3818C105.053 49.4515 104.858 49.5143 104.662 49.5709C104.219 49.6982 103.767 49.7853 103.304 49.8333C103.243 49.9074 103.14 49.9649 102.992 50.0076L102.734 50.0817C102.537 50.1383 102.419 50.2211 102.381 50.331C102.342 50.4408 102.261 50.5131 102.138 50.5489C102.015 50.5846 101.894 50.5977 101.773 50.5898C101.653 50.582 101.531 50.5959 101.408 50.6308L101.297 50.6622C101.192 50.6639 101.041 50.6936 100.845 50.7493C100.574 50.8269 100.337 50.9306 100.132 51.0596C99.9274 51.1886 99.7021 51.2889 99.4564 51.3595C99.284 51.4092 99.1018 51.4187 98.9106 51.3891C98.8862 51.3961 98.8626 51.4092 98.8415 51.4301C98.8203 51.4501 98.7967 51.4641 98.7723 51.471C98.6983 51.492 98.6275 51.4981 98.5592 51.4893C98.4909 51.4806 98.4323 51.4832 98.3835 51.4972C98.2598 51.5329 98.1484 51.5861 98.0475 51.6567C97.9467 51.7282 97.8344 51.7813 97.7116 51.8162C97.4651 51.8868 97.2113 51.9243 96.9494 51.9295C96.6866 51.9339 96.4206 51.9757 96.1498 52.0533C95.9773 52.103 95.8455 52.1544 95.7536 52.2093C95.6039 52.1387 95.4624 52.0733 95.329 52.0132C95.1956 51.953 95.0508 51.8746 94.8946 51.7778L94.858 51.7883C94.8084 51.8022 94.7352 51.6689 94.6384 51.3856C94.5416 51.1032 94.4391 50.7729 94.3309 50.3937C94.2227 50.0155 94.121 49.6354 94.0258 49.2528C93.9307 48.871 93.8599 48.5878 93.8135 48.403C93.7916 48.2121 93.7436 47.9925 93.6687 47.7458C93.5939 47.4991 93.5427 47.2673 93.5142 47.0485C93.445 46.984 93.3881 46.8594 93.3417 46.6746C93.3019 46.5168 93.2856 46.3451 93.2921 46.1595C93.2986 45.9747 93.275 45.7768 93.223 45.565C93.1766 45.3811 93.1156 45.2434 93.0408 45.1519L92.9814 44.9148C92.9285 44.7039 92.8651 44.5034 92.791 44.3125C92.717 44.1216 92.6536 43.922 92.6007 43.7102C92.5478 43.4993 92.5324 43.2788 92.5535 43.0461C92.4827 42.8691 92.4217 42.7027 92.3697 42.5484C92.3176 42.3941 92.2688 42.2241 92.2224 42.0402C92.1964 41.9356 92.1834 41.8328 92.185 41.7334C92.1858 41.6341 92.1809 41.5582 92.1679 41.5051C92.1232 41.4327 92.0882 41.3447 92.0622 41.2392C92.0174 41.1669 91.9857 41.0919 91.9662 41.0126C91.9467 40.9333 91.9304 40.8679 91.9166 40.8148C91.9076 40.6762 91.884 40.5271 91.845 40.3694C91.8059 40.2116 91.7791 40.1061 91.7661 40.053C91.6839 39.9353 91.6278 39.8176 91.5985 39.6991C91.5692 39.5806 91.5375 39.4559 91.505 39.3234C91.4326 39.0341 91.374 38.7473 91.3293 38.4632C91.2845 38.1799 91.226 37.8931 91.1536 37.6029C91.23 37.3832 91.2455 37.181 91.1999 36.9962C91.1674 36.8646 91.1218 36.7365 91.0641 36.6119C91.0063 36.4872 90.9616 36.3591 90.9282 36.2275C90.8754 36.0166 90.8632 35.8649 90.8933 35.7716C90.8241 35.7071 90.7737 35.6086 90.7403 35.477C90.7078 35.3454 90.6915 35.2304 90.6931 35.1301C90.694 35.0308 90.6793 34.9157 90.646 34.7832C90.6264 34.7039 90.5866 34.6246 90.5264 34.5418C90.4662 34.4607 90.4231 34.3666 90.3971 34.2611C90.3645 34.1295 90.3499 33.9927 90.3539 33.8497C90.358 33.7077 90.3434 33.5708 90.3108 33.4383C90.2848 33.3338 90.2441 33.2248 90.1896 33.1132C90.1351 33.0017 90.0888 32.8666 90.0489 32.7088C90.0025 32.5249 89.9773 32.3698 89.9724 32.2434C89.9667 32.1179 89.9488 31.9897 89.9155 31.8572C89.883 31.7256 89.835 31.5914 89.7748 31.4528C89.7138 31.3151 89.6674 31.1809 89.634 31.0484C89.608 30.9438 89.5991 30.8043 89.6088 30.6318C89.5397 30.5673 89.4754 30.4156 89.4169 30.1785C89.3973 30.0992 89.3762 30.0147 89.3526 29.9214C89.3298 29.829 89.3201 29.7401 89.3249 29.6538C89.2607 29.503 89.2086 29.3479 89.1696 29.1901L89.0508 28.716C89.0044 28.5321 88.9621 28.3604 88.9223 28.2026C88.8824 28.0448 88.8556 27.8827 88.8409 27.718C88.7319 27.4949 88.6254 27.2508 88.5188 26.9841C88.4122 26.7174 88.3236 26.4402 88.2512 26.15C88.2048 25.9661 88.182 25.7961 88.1828 25.6401C88.1828 25.4849 88.1706 25.3542 88.1446 25.2487C88.1121 25.1171 88.0559 24.9986 87.977 24.8948C87.8981 24.7903 87.8428 24.6726 87.8095 24.541C87.7176 24.1723 87.8062 23.7652 88.0771 23.3207C88.348 22.8762 88.6555 22.6043 88.9996 22.5049C89.0972 22.477 89.198 22.4552 89.2997 22.4395C89.4014 22.4247 89.5015 22.4029 89.5999 22.3742L89.6048 22.3811Z" fill="#EF4444" fill-opacity="0.8"/>
<path d="M137.167 25.8806C137.094 25.5913 137.008 25.2208 136.908 24.7685C136.808 24.317 136.718 23.8777 136.637 23.448C136.593 23.3756 136.53 23.3094 136.449 23.2475C136.367 23.1865 136.301 23.1063 136.25 23.0078C136.273 22.8884 136.258 22.7516 136.207 22.5964C136.155 22.4421 136.125 22.2957 136.117 22.1563C136.041 22.0656 135.983 21.9907 135.942 21.9314C135.9 21.873 135.855 21.7945 135.804 21.6961C135.815 21.6368 135.808 21.554 135.781 21.4485C135.708 21.1591 135.595 20.916 135.441 20.7198C135.286 20.5246 135.186 20.3346 135.14 20.1498C135.158 20.1167 135.157 20.06 135.137 19.9807C135.105 19.8491 135.015 19.755 134.869 19.6975C134.722 19.6408 134.623 19.5074 134.571 19.2956L134.512 19.0586C134.465 18.8747 134.268 18.5853 133.92 18.1913C133.571 17.7982 133.258 17.4705 132.983 17.2108C132.91 16.9214 132.699 16.6564 132.35 16.4185C132 16.1796 131.759 16.0097 131.628 15.9051C131.415 15.6846 131.18 15.5111 130.925 15.3865C130.67 15.2627 130.412 15.1529 130.152 15.0579C129.907 14.8173 129.648 14.6517 129.375 14.5611C129.102 14.4704 128.815 14.3554 128.518 14.2142C128.379 14.0843 128.213 14.0259 128.019 14.0398C127.824 14.0529 127.637 14.0154 127.457 13.9257C127.339 13.8751 127.222 13.8307 127.107 13.7932C126.992 13.7557 126.858 13.7452 126.704 13.7609C126.326 13.7287 125.979 13.6302 125.661 13.4672C125.344 13.3042 124.959 13.2171 124.509 13.2048C124.091 13.3251 123.71 13.3565 123.367 13.2999C123.023 13.2441 122.642 13.2746 122.225 13.3949C121.733 13.5361 121.23 13.6319 120.715 13.6799C120.2 13.7296 119.648 13.8376 119.057 14.0076C118.737 14.0991 118.419 14.1985 118.103 14.3031C117.787 14.4085 117.468 14.5062 117.149 14.5985C116.878 14.6761 116.622 14.7354 116.383 14.7764C116.142 14.8173 115.898 14.8731 115.654 14.9437C115.506 14.9864 115.366 15.0335 115.235 15.0849C115.103 15.1372 114.963 15.1843 114.816 15.2261C114.717 15.254 114.63 15.2732 114.553 15.2801C114.476 15.288 114.381 15.2801 114.27 15.2557C114.202 15.3037 114.107 15.3446 113.984 15.3804C113.788 15.437 113.605 15.4684 113.435 15.4745C113.265 15.4806 113.094 15.5085 112.922 15.5582C112.651 15.6358 112.375 15.7438 112.093 15.8807C111.812 16.0184 111.51 16.1326 111.191 16.2241C110.994 16.2808 110.791 16.3392 110.583 16.3984C110.374 16.4586 110.167 16.5039 109.964 16.5335C109.866 16.5614 109.768 16.5684 109.673 16.5536C109.577 16.5387 109.467 16.5492 109.345 16.5841C109.049 16.6686 108.833 16.9362 108.695 17.3851C108.556 17.8348 108.517 18.1774 108.577 18.4144C108.617 18.5722 108.673 18.7195 108.746 18.8529C108.819 18.9871 108.872 19.1204 108.905 19.2521C108.889 19.3985 108.91 19.5615 108.969 19.7419C109.027 19.9232 109.033 20.0766 108.985 20.203C109.038 20.4139 109.07 20.6231 109.083 20.8314C109.095 21.0397 109.125 21.2367 109.17 21.4206C109.223 21.6316 109.306 21.805 109.419 21.9418C109.415 22.0281 109.425 22.124 109.452 22.2295C109.478 22.3349 109.508 22.4535 109.541 22.5851C109.58 22.7429 109.628 22.8849 109.686 23.0096C109.743 23.1351 109.789 23.2623 109.822 23.3939C109.855 23.5264 109.864 23.665 109.847 23.8106C109.831 23.957 109.839 24.0956 109.872 24.2272C109.885 24.2804 109.936 24.378 110.025 24.5218C110.059 24.6543 110.083 24.7807 110.101 24.9027C110.118 25.0247 110.143 25.152 110.177 25.2836C110.21 25.4161 110.271 25.5041 110.361 25.5486C110.452 25.5939 110.52 25.7081 110.566 25.892C110.599 26.0245 110.608 26.1412 110.594 26.2441C110.58 26.3469 110.59 26.4646 110.622 26.5962C110.662 26.754 110.726 26.9056 110.814 27.0495C110.903 27.1933 110.989 27.3249 111.071 27.4417C111.003 27.4896 110.98 27.6308 110.998 27.8644C111.018 28.0989 111.03 28.2296 111.037 28.2558C111.083 28.4406 111.156 28.5748 111.256 28.6585C111.246 28.831 111.255 28.9696 111.281 29.0751C111.321 29.2328 111.372 29.388 111.437 29.5388C111.5 29.6896 111.553 29.8447 111.592 30.0025C111.625 30.135 111.63 30.2605 111.608 30.379C111.585 30.4984 111.59 30.6239 111.623 30.7555C111.676 30.9665 111.821 31.1791 112.059 31.3927C112.085 31.4981 112.08 31.6341 112.042 31.7997C112.005 31.9662 112.009 32.1414 112.055 32.3253C112.101 32.5101 112.154 32.6426 112.214 32.7245C112.275 32.8064 112.358 32.9023 112.464 33.013C112.477 33.0662 112.454 33.1289 112.393 33.203C112.333 33.2771 112.345 33.4854 112.431 33.828C112.471 33.9857 112.509 34.1165 112.548 34.2176C112.586 34.3195 112.623 34.4363 112.655 34.568L112.754 34.9628C112.82 35.2269 112.92 35.3672 113.057 35.3838C113.09 35.5163 113.095 35.6418 113.073 35.7603C113.05 35.8797 113.058 36.0183 113.098 36.1769C113.124 36.2824 113.173 36.3957 113.242 36.5169C113.312 36.638 113.353 36.7252 113.366 36.7775C113.373 36.8036 113.363 36.8707 113.337 36.9762C113.311 37.0834 113.308 37.1749 113.327 37.2542C113.38 37.4652 113.467 37.6308 113.59 37.7511C113.712 37.8713 113.8 38.037 113.853 38.2479C113.879 38.3533 113.887 38.464 113.876 38.58C113.866 38.6959 113.876 38.8197 113.91 38.9513C113.943 39.0838 113.989 39.218 114.05 39.3557C114.111 39.4943 114.158 39.6285 114.191 39.7601C114.224 39.8926 114.237 40.0007 114.233 40.087C114.324 40.3441 114.4 40.5969 114.463 40.847C114.525 41.098 114.59 41.3543 114.656 41.6175L114.982 42.9214C115.035 43.1324 115.092 43.3346 115.153 43.5289C115.215 43.7233 115.272 43.9255 115.325 44.1365C115.365 44.2942 115.376 44.4755 115.362 44.6769C115.346 44.8791 115.365 45.0856 115.418 45.2966C115.543 45.7977 115.849 46.0488 116.337 46.0488C116.824 46.0496 117.364 45.966 117.954 45.796C118.126 45.7463 118.304 45.667 118.488 45.5581C118.758 45.4805 119.018 45.4125 119.267 45.3558C119.516 45.2983 119.775 45.2312 120.046 45.1536C120.193 45.1109 120.346 45.0604 120.503 45.0011C120.659 44.9418 120.811 44.8913 120.959 44.8486L121.291 44.7536C121.414 44.7187 121.493 44.6673 121.529 44.6002C121.77 44.6158 122.063 44.574 122.407 44.4755C122.53 44.4406 122.657 44.3962 122.789 44.3448C122.921 44.2925 123.048 44.2489 123.172 44.214L123.429 44.1399C123.577 44.0972 123.669 44.0432 123.704 43.9761C123.766 44.0144 123.872 44.0127 124.019 43.97L124.351 43.875L124.462 43.8436L124.481 43.9229C125.02 43.6553 125.582 43.4226 126.165 43.2274C126.748 43.0313 127.345 42.8325 127.952 42.6294C128.162 42.6251 128.378 42.592 128.599 42.5283C128.82 42.4647 128.967 42.3662 129.039 42.2329C129.094 42.2451 129.184 42.2329 129.307 42.198C129.504 42.1413 129.654 42.0559 129.757 41.9417C129.861 41.8276 130.01 41.7422 130.207 41.6855C130.256 41.6716 130.301 41.6655 130.341 41.6681C130.382 41.6707 130.426 41.6646 130.475 41.6506C130.632 41.4362 130.872 41.2898 131.195 41.2105C131.518 41.132 131.758 40.9856 131.915 40.7703C132.066 40.5298 132.279 40.3554 132.555 40.2473C132.831 40.1401 133.052 39.9928 133.215 39.8037C133.298 39.6102 133.433 39.4655 133.62 39.3696C133.807 39.2738 133.938 39.116 134.016 38.8964C134.132 38.8353 134.211 38.7281 134.252 38.5747C134.292 38.4222 134.387 38.3246 134.534 38.2819C134.661 38.1607 134.767 38.0317 134.852 37.894C134.936 37.7572 135.058 37.6378 135.217 37.5349C135.3 37.3414 135.407 37.1627 135.538 36.998C135.668 36.8333 135.792 36.6711 135.909 36.5099C136.026 36.3486 136.129 36.1787 136.216 35.9983C136.302 35.8187 136.357 35.6121 136.378 35.3803C136.484 35.0683 136.624 34.7588 136.798 34.4546C136.972 34.1505 137.085 33.8367 137.135 33.5107C137.103 33.3791 137.107 33.2649 137.148 33.1681C137.19 33.0714 137.245 32.9781 137.315 32.8875C137.384 32.7977 137.44 32.7036 137.482 32.6068C137.523 32.5101 137.525 32.3828 137.485 32.2251C137.434 31.7038 137.468 31.207 137.587 30.7346C137.706 30.2631 137.758 29.7889 137.745 29.3122C137.732 29.2599 137.701 29.191 137.654 29.1056C137.606 29.021 137.566 28.9121 137.533 28.7805C137.5 28.6489 137.508 28.5478 137.556 28.4772C137.604 28.4074 137.622 28.3455 137.609 28.2924L137.579 28.1738C137.566 28.1215 137.569 28.078 137.587 28.0448C137.605 28.0117 137.607 27.969 137.594 27.9158C137.581 27.8635 137.56 27.806 137.531 27.7433C137.502 27.6814 137.482 27.6239 137.469 27.5707C137.436 27.4391 137.435 27.3048 137.467 27.1689C137.499 27.0329 137.499 26.8987 137.465 26.7671C137.433 26.6355 137.383 26.4943 137.32 26.3426C137.256 26.1918 137.204 26.0367 137.164 25.8789L137.167 25.8806ZM128.941 28.4754C129.002 28.5573 129.045 28.6506 129.071 28.7561C129.09 28.8354 129.091 28.892 129.073 28.9252C128.934 29.1065 128.923 29.3496 129.038 29.6556C129.154 29.9615 129.173 30.2239 129.097 30.4435C129.013 30.637 128.987 30.8497 129.019 31.0798C129.05 31.3108 129.02 31.5104 128.931 31.6768C128.8 31.9967 128.656 32.2922 128.5 32.5633C128.344 32.8343 128.256 33.142 128.237 33.4863C128.019 33.7757 127.763 34.018 127.471 34.215C127.177 34.4128 126.93 34.6386 126.731 34.8931C126.513 35.1824 126.265 35.4012 125.987 35.552C125.709 35.7028 125.422 35.8771 125.129 36.0732C125.082 36.1996 124.996 36.2807 124.873 36.3164C124.799 36.3373 124.723 36.346 124.642 36.3408C124.562 36.3364 124.472 36.3469 124.374 36.3757C124.275 36.4036 124.192 36.4419 124.126 36.489C124.058 36.5369 123.963 36.5779 123.84 36.6136L123.472 36.7191C123.25 36.7827 123.106 36.8385 123.039 36.8856C122.878 36.8751 122.736 36.8882 122.614 36.923C122.49 36.9588 122.366 36.9379 122.242 36.8603C122.079 36.7374 121.967 36.5517 121.904 36.3007C121.842 36.0506 121.698 35.9006 121.475 35.8518C121.436 35.6941 121.414 35.5302 121.412 35.362C121.41 35.1929 121.385 35.0168 121.339 34.832C121.306 34.7004 121.263 34.5575 121.212 34.4023C121.16 34.2481 121.118 34.1051 121.085 33.9726C121.013 33.6833 121.017 33.4628 121.098 33.3128C121.179 33.1629 121.19 32.9686 121.131 32.7315C121.071 32.4944 120.991 32.2782 120.889 32.0804C120.786 31.8843 120.71 31.6803 120.657 31.4694C120.625 31.3378 120.614 31.1922 120.627 31.0336C120.64 30.875 120.63 30.7294 120.597 30.5978C120.557 30.44 120.494 30.2953 120.41 30.1646C120.324 30.0347 120.265 29.9031 120.233 29.7706C120.193 29.6129 120.164 29.4446 120.146 29.266C120.127 29.0882 120.095 28.9069 120.049 28.7221C119.957 28.3534 119.85 27.9812 119.73 27.6064C119.609 27.2316 119.504 26.8603 119.411 26.4908C119.358 26.2798 119.351 26.1203 119.39 26.0096C119.428 25.8998 119.431 25.7795 119.398 25.647C119.345 25.4361 119.291 25.2191 119.235 24.9951C119.179 24.772 119.07 24.5976 118.907 24.4747C118.94 24.1836 118.923 23.9056 118.857 23.6423C118.778 23.326 118.666 23.0906 118.522 22.9337C118.467 22.6104 118.553 22.3463 118.778 22.1397C119.003 21.934 119.177 21.8137 119.3 21.778C119.497 21.7213 119.696 21.7004 119.897 21.7126C120.098 21.7257 120.296 21.7039 120.493 21.6472C120.616 21.6124 120.765 21.527 120.943 21.391C121.14 21.3343 121.288 21.3492 121.388 21.4328C121.488 21.5174 121.611 21.5383 121.759 21.4956C122.063 21.5505 122.423 21.5165 122.841 21.3971C122.848 21.4232 122.949 21.4581 123.144 21.5008C123.339 21.5444 123.586 21.6071 123.883 21.6908C124.181 21.7745 124.51 21.8782 124.87 22.0002C125.23 22.1231 125.574 22.2635 125.905 22.423C125.987 22.5406 126.093 22.6513 126.225 22.7551C126.356 22.8588 126.485 22.9494 126.609 23.0261C126.721 23.0514 126.808 23.1107 126.871 23.2048C126.935 23.2998 126.987 23.4044 127.029 23.5195C127.07 23.6345 127.118 23.7478 127.173 23.8594C127.227 23.9709 127.31 24.0389 127.422 24.0633C127.428 24.0895 127.427 24.1113 127.419 24.1278C127.41 24.1453 127.409 24.1662 127.415 24.1923C127.494 24.5087 127.628 24.7528 127.816 24.9245C128.003 25.0971 128.134 25.3272 128.206 25.6174C128.225 25.6967 128.234 25.7856 128.234 25.885C128.232 25.9844 128.241 26.0733 128.261 26.1526C128.321 26.3897 128.421 26.6084 128.563 26.8072C128.705 27.0068 128.802 27.2116 128.855 27.4225C128.908 27.6334 128.893 27.8357 128.809 28.0292L128.838 28.1477C128.851 28.2009 128.845 28.2305 128.821 28.2375C128.84 28.3168 128.88 28.397 128.941 28.478L128.941 28.4754Z" fill="#EF4444" fill-opacity="0.8"/>
<path d="M60.3515 60.6421C60.1954 60.5462 60.088 60.3789 60.0286 60.1418C59.9627 59.8786 59.8448 59.672 59.6764 59.5229C59.5072 59.3739 59.3721 59.2013 59.2696 59.0043C59.1989 58.8274 59.1297 58.6566 59.0622 58.4918C58.9947 58.328 58.9077 58.1903 58.8011 58.0796C58.5579 57.9523 58.3537 57.7144 58.1878 57.3657C58.0218 57.0179 57.8811 56.7199 57.7664 56.4706C57.5728 56.3285 57.3979 56.1315 57.2433 55.8796C57.088 55.6277 56.9375 55.368 56.7911 55.0987C56.6447 54.8302 56.4958 54.5766 56.3437 54.3378C56.1916 54.0998 56.0191 53.9089 55.8255 53.7669C55.8125 53.7146 55.8068 53.6666 55.8092 53.623C55.8117 53.5803 55.806 53.5324 55.793 53.4792C55.7141 53.1628 55.5652 52.938 55.3472 52.8029C55.1292 52.6686 54.9592 52.4629 54.8372 52.1866L54.8079 52.0681C54.742 51.8049 54.6387 51.6297 54.4988 51.5425C54.3589 51.4553 54.2409 51.3272 54.1457 51.1573C54.1498 51.071 54.1368 50.9629 54.1034 50.8304C54.031 50.541 53.9025 50.3449 53.7187 50.2421C53.5348 50.1401 53.4071 49.944 53.3339 49.6537C53.3469 49.7069 53.3063 49.6476 53.2111 49.4777C53.1151 49.3077 53.0118 49.2101 52.9012 49.1857L52.8613 49.0279C52.7824 48.7115 52.6409 48.4631 52.4375 48.281C52.2341 48.0997 52.1162 47.9428 52.0828 47.8112C52.0698 47.7589 52.0625 47.7048 52.0617 47.6482C52.0609 47.5924 52.0536 47.5375 52.0405 47.4852L52.0007 47.3274C51.5866 46.9378 51.2645 46.4375 51.0327 45.8265C50.7651 45.7062 50.5804 45.4691 50.4795 45.117C50.3779 44.7649 50.2209 44.4781 50.0077 44.2567C49.9305 44.0537 49.8076 43.9055 49.6392 43.8122C49.4709 43.7198 49.357 43.5542 49.2984 43.3171C49.2724 43.2126 49.2642 43.1297 49.2756 43.0696C49.1772 43.0975 49.0918 43.0452 49.0186 42.9101C48.9454 42.7759 48.873 42.6199 48.803 42.4429C48.7322 42.266 48.6558 42.0899 48.5728 41.9165C48.4898 41.743 48.38 41.6471 48.2442 41.6297C48.2312 41.5774 48.2271 41.5365 48.2328 41.5059C48.2385 41.4763 48.2352 41.4353 48.2214 41.3822C48.1425 41.0658 47.9928 40.8618 47.7716 40.7703C47.5511 40.6788 47.4047 40.4879 47.3315 40.1977C47.299 40.0661 47.2843 39.9571 47.2892 39.8708C47.146 39.8272 47.037 39.7314 46.9606 39.5841C46.8841 39.4368 46.8133 39.2877 46.7499 39.136C46.6856 38.9853 46.6173 38.8423 46.5441 38.7081C46.4709 38.5739 46.3716 38.4684 46.2472 38.3908C46.1105 37.9507 45.9071 37.5846 45.6371 37.2952C45.367 37.0058 45.1514 36.6441 44.9904 36.2101C44.7724 36.0758 44.5731 35.9634 44.3925 35.8736C44.2119 35.7847 44.0224 35.7115 43.8239 35.6557C43.6254 35.5999 43.44 35.5964 43.2683 35.6461C43.0959 35.6958 42.9332 35.7568 42.7802 35.8283C42.6265 35.9006 42.4923 35.9678 42.376 36.0288C42.271 36.0314 42.1197 36.0601 41.9237 36.1159C41.8 36.1517 41.691 36.19 41.5967 36.231C41.5015 36.2728 41.4169 36.3033 41.3437 36.3251C41.1778 36.4009 41.0151 36.462 40.8556 36.5073C40.6954 36.5535 40.5425 36.5971 40.3944 36.6398C39.755 36.8237 39.1376 36.9657 38.5438 37.0651C37.9492 37.1653 37.3326 37.3074 36.6932 37.4905C36.4223 37.568 36.162 37.6578 35.9099 37.758C35.6585 37.8591 35.4169 38.0265 35.1859 38.2627C35.1403 38.5024 35.0403 38.7072 34.8849 38.8789C34.7304 39.0506 34.6425 39.252 34.6214 39.4838L34.6905 39.7601C34.7889 40.155 34.7483 40.5202 34.5685 40.854C34.4782 41.0213 34.4652 41.2296 34.527 41.4798C34.5896 41.7308 34.5945 41.9618 34.5425 42.1745C34.6018 42.4115 34.5831 42.6286 34.488 42.8256C34.392 43.0225 34.3464 43.2335 34.3497 43.4583C34.3269 43.5778 34.3391 43.7085 34.3879 43.8497C34.4359 43.9909 34.4489 44.1216 34.4261 44.241C34.2822 44.5086 34.2496 44.8285 34.3302 45.2007C34.4099 45.5737 34.3847 45.9198 34.2537 46.2388C34.1325 46.387 34.1008 46.6293 34.1585 46.9648C34.2163 47.3013 34.2179 47.5192 34.1642 47.6194C34.0983 47.7798 34.0731 47.9419 34.0886 48.1075C34.1032 48.2731 34.1195 48.4448 34.1382 48.6226C34.1561 48.8013 34.1601 48.9765 34.1512 49.1482C34.1414 49.3208 34.1008 49.4742 34.0284 49.6067C34.0829 49.93 34.056 50.2203 33.9495 50.4765C33.8421 50.7337 33.8315 51.0335 33.9169 51.3752L33.9462 51.4937C33.8087 51.7874 33.7559 52.0777 33.7884 52.3653C33.8209 52.6529 33.8047 52.9327 33.7412 53.2047C33.7249 53.3511 33.7087 53.4967 33.6924 53.6422C33.6761 53.7886 33.6631 53.9473 33.6534 54.119C33.5387 54.2933 33.5143 54.5121 33.5802 54.7753C33.646 55.0394 33.6371 55.2669 33.5541 55.4604C33.5476 55.8578 33.5216 56.2535 33.4752 56.6475C33.4289 57.0424 33.402 57.4381 33.3963 57.8346C33.3866 58.0072 33.3866 58.1911 33.3963 58.3855C33.4053 58.5807 33.402 58.7516 33.3857 58.8971C33.3727 58.8448 33.3556 58.8841 33.3369 59.0174C33.3174 59.1499 33.2922 59.3129 33.2613 59.5055C33.2304 59.6981 33.2019 59.876 33.1767 60.0381C33.1515 60.2011 33.1263 60.2856 33.1018 60.2926C33.171 60.358 33.2214 60.4564 33.2548 60.5872C33.3076 60.7981 33.2808 60.982 33.1751 61.1398C33.0693 61.2975 33.0433 61.4815 33.0953 61.6924L33.145 61.8902C33.1978 62.1012 33.2108 62.2598 33.1848 62.3661C33.1588 62.4733 33.1222 62.6172 33.0758 62.8002C33.0286 62.9832 32.9741 63.2386 32.9115 63.5672C32.8489 63.8967 32.8066 64.3883 32.7862 65.0437L32.8358 65.2416C32.8952 65.4786 32.8716 65.6765 32.7667 65.8334C32.661 65.9911 32.6065 66.169 32.604 66.3677L32.6439 66.5254C32.6968 66.7364 32.6837 66.9238 32.6065 67.0868C32.5292 67.2506 32.5162 67.438 32.569 67.6481C32.6414 67.9383 32.6471 68.1972 32.5861 68.4273C32.5251 68.6565 32.5438 68.9686 32.6422 69.3643C32.735 69.7338 32.9652 69.9709 33.3345 70.0764C33.703 70.1827 34.0845 70.1784 34.4782 70.0659C34.6498 70.0162 34.8142 69.9622 34.9711 69.9029C35.1273 69.8437 35.2794 69.7931 35.4275 69.7504C35.6976 69.6728 35.9676 69.617 36.2352 69.5822C36.5037 69.5473 36.7721 69.4915 37.043 69.414C37.2887 69.3433 37.4782 69.2318 37.6124 69.081C37.7458 68.9293 37.9354 68.8186 38.1818 68.748C38.2794 68.7202 38.4958 68.6862 38.8285 68.6469C39.1612 68.6077 39.4996 68.5389 39.8445 68.4404C39.9918 68.3977 40.1553 68.2591 40.3334 68.0246C40.5115 67.7893 40.6759 67.5522 40.8272 67.3108C40.8857 67.1242 40.8996 66.9159 40.8686 66.6849C40.8369 66.4548 40.8198 66.2265 40.8166 66.0007C40.9557 65.8203 40.9915 65.5414 40.924 65.1649C40.8556 64.7892 40.8386 64.4554 40.8711 64.1634C40.8345 63.8069 40.8174 63.5297 40.8207 63.331C40.8239 63.1331 40.8605 62.9379 40.9321 62.7488C41.0037 62.5596 41.1371 62.4359 41.3339 62.3792C41.5308 62.3226 41.7317 62.2581 41.9375 62.1848C42.1425 62.1116 42.3564 62.0436 42.5777 61.98C42.8478 61.9024 43.1219 61.8388 43.3993 61.7865C43.6759 61.7351 43.95 61.6706 44.2209 61.593C44.4177 61.5364 44.5869 61.4527 44.7309 61.3403C44.8741 61.2287 45.0001 61.1293 45.1108 61.0404C45.6021 60.8992 46.0763 60.792 46.5319 60.7171C46.9874 60.643 47.4982 60.5244 48.0636 60.3623C48.2604 60.3057 48.4386 60.2551 48.598 60.2089C48.7575 60.1627 48.9169 60.0895 49.0763 59.9866L49.1129 59.9762L49.6295 59.828C49.8263 59.7714 50.0508 59.7496 50.3046 59.7609C50.5576 59.7731 50.7309 59.9631 50.8228 60.3318L50.892 60.6081C50.9448 60.819 51.0563 60.9498 51.2271 60.9995C51.3979 61.05 51.5094 61.1799 51.5622 61.3908C51.5655 61.6165 51.5777 61.7673 51.5972 61.8467C51.6696 62.1369 51.8103 62.3574 52.0202 62.5091C52.2293 62.6607 52.37 62.8821 52.4424 63.1715C52.4619 63.2508 52.4733 63.4025 52.4774 63.6274C52.7857 64.0196 53.1981 64.2183 53.7138 64.2253C54.2295 64.2322 54.7575 64.1582 55.2992 64.003C55.5693 63.9254 55.8166 63.833 56.0403 63.7267C56.264 63.6204 56.5104 63.528 56.7813 63.4504C57.1254 63.3519 57.4915 63.2604 57.8795 63.1776C58.2667 63.0939 58.6327 63.0033 58.9776 62.9048L59.3461 62.7985L59.373 62.7488C59.534 62.7592 59.6512 62.754 59.7244 62.7322C59.896 62.6825 60.0262 62.5962 60.114 62.4725C60.2019 62.3478 60.2661 62.2101 60.3068 62.0567C60.3475 61.9042 60.3946 61.7499 60.4475 61.593C60.5004 61.437 60.5785 61.301 60.6818 61.1868C60.6159 60.9236 60.5053 60.7441 60.3491 60.6473L60.3515 60.6421ZM46.8947 53.7041C46.8215 53.7817 46.7271 53.8514 46.6108 53.9124C46.4945 53.9743 46.3716 54.0379 46.2431 54.1024C46.1146 54.1678 46.0235 54.2506 45.969 54.3508C45.8347 54.4467 45.6997 54.5129 45.5647 54.5513C45.4288 54.5905 45.3003 54.6271 45.1775 54.6629C44.7097 54.7971 44.2624 54.8764 43.8337 54.9008C43.405 54.9252 42.9568 55.0045 42.4898 55.1388C42.3662 55.1745 42.2499 55.2076 42.1393 55.239C42.0286 55.2704 41.9147 55.3183 41.7984 55.3793C41.6919 55.2686 41.5495 55.1754 41.3722 55.0995C41.1948 55.0237 41.0866 54.906 41.0468 54.7483C41.0427 54.5234 41.0395 54.2994 41.0362 54.0737C41.0395 53.8758 41.0378 53.6849 41.0321 53.5028C41.0265 53.3215 41.0313 53.1576 41.0476 53.0112C41.0622 52.7532 41.0997 52.5091 41.1615 52.2799C41.2233 52.0507 41.2168 51.7909 41.1444 51.5007L41.0948 51.3028C41.1159 51.071 41.159 50.847 41.2233 50.6308C41.2876 50.4146 41.2843 50.1619 41.2111 49.8716L41.1615 49.6738C41.1712 49.5012 41.1916 49.3478 41.2233 49.211C41.255 49.075 41.2916 48.9303 41.3323 48.7769C41.3063 48.6723 41.2762 48.5808 41.2445 48.5058C41.2119 48.43 41.1834 48.3402 41.1566 48.2348C41.0842 47.9454 41.1062 47.6917 41.2233 47.4747C41.3404 47.2577 41.3559 46.9779 41.2705 46.6354C41.2746 46.5491 41.2835 46.4767 41.2949 46.4166C41.3063 46.3573 41.3022 46.2876 41.2827 46.2083L41.2534 46.0897C41.2567 45.8919 41.2778 45.6879 41.3177 45.4779C41.3575 45.2695 41.5373 45.1179 41.857 45.0264C41.8765 45.0211 41.8936 45.0177 41.9115 45.0142L44.033 48.6235L44.1102 48.5712C44.1338 48.5939 44.1582 48.6157 44.1834 48.6366C44.2802 48.9198 44.4185 49.1552 44.5975 49.3434C44.7765 49.5326 44.9058 49.7845 44.9847 50.1009C45.0913 50.2116 45.2474 50.4138 45.4524 50.7075C45.6574 51.0021 45.8632 51.3237 46.0698 51.6741C46.2764 52.0245 46.4644 52.3592 46.6368 52.6765C46.8084 52.9946 46.9109 53.2195 46.9435 53.3511C46.9833 53.5089 46.9662 53.6274 46.8939 53.7041H46.8947Z" fill="#EF4444" fill-opacity="0.8"/>
</svg>
