<svg width="42" height="42" viewBox="0 0 42 42" fill="none" xmlns="http://www.w3.org/2000/svg">
<g filter="url(#filter0_i_4854_168)">
<circle cx="21" cy="21" r="21" fill="#BDD6D6"/>
</g>
<mask id="mask0_4854_168" style="mask-type:alpha" maskUnits="userSpaceOnUse" x="9" y="8" width="24" height="24">
<rect x="9" y="8" width="24" height="24" fill="#D9D9D9"/>
</mask>
<g mask="url(#mask0_4854_168)">
<path d="M15.5179 28.2031C13.9451 28.2031 12.6014 27.6602 11.4867 26.5744C10.372 25.4885 9.8147 24.1614 9.8147 22.5929C9.8147 21.253 10.2094 20.0558 10.9987 19.0011C11.7879 17.9466 12.8298 17.2737 14.1244 16.9824C14.5649 15.4332 15.4202 14.1816 16.6902 13.2276C17.96 12.2736 19.3966 11.7966 20.9999 11.7966C22.9699 11.7966 24.647 12.4778 26.0312 13.8401C27.4154 15.2025 28.1294 16.8665 28.1732 18.8324C29.3352 19.0095 30.2944 19.5413 31.0507 20.4276C31.807 21.3138 32.1852 22.3439 32.1852 23.5179C32.1852 24.8194 31.7268 25.9256 30.8099 26.8366C29.8931 27.7476 28.7838 28.2031 27.4819 28.2031H22.2272C21.6015 28.2031 21.0659 27.9804 20.6204 27.5349C20.1749 27.0894 19.9522 26.5538 19.9522 25.9281V21.1429L18.3102 22.7466L16.8444 21.2869L20.9999 17.1254L25.1554 21.2869L23.6897 22.7466L22.0477 21.1429V25.9281H27.4819C28.1581 25.9281 28.7319 25.6925 29.2032 25.2211C29.6745 24.7498 29.9102 24.176 29.9102 23.4999C29.9102 22.8237 29.6745 22.25 29.2032 21.7786C28.7319 21.3073 28.1581 21.0716 27.4819 21.0716H25.9102V18.9819C25.9102 17.6234 25.4314 16.4654 24.4739 15.5079C23.5164 14.5504 22.3584 14.0716 20.9999 14.0716C19.6326 14.0716 18.4724 14.5611 17.5192 15.5401C16.5662 16.5191 16.0897 17.6963 16.0897 19.0716H15.5179C14.5711 19.0716 13.763 19.4063 13.0937 20.0756C12.4244 20.745 12.0897 21.553 12.0897 22.4999C12.0897 23.4465 12.4244 24.2546 13.0937 24.9241C13.763 25.5935 14.5711 25.9281 15.5179 25.9281H17.9522V28.2031H15.5179Z" fill="#1C1B1F"/>
</g>
<defs>
<filter id="filter0_i_4854_168" x="-1" y="-1" width="43" height="43" filterUnits="userSpaceOnUse" color-interpolation-filters="sRGB">
<feFlood flood-opacity="0" result="BackgroundImageFix"/>
<feBlend mode="normal" in="SourceGraphic" in2="BackgroundImageFix" result="shape"/>
<feColorMatrix in="SourceAlpha" type="matrix" values="0 0 0 0 0 0 0 0 0 0 0 0 0 0 0 0 0 0 127 0" result="hardAlpha"/>
<feOffset dx="-1" dy="-1"/>
<feGaussianBlur stdDeviation="1"/>
<feComposite in2="hardAlpha" operator="arithmetic" k2="-1" k3="1"/>
<feColorMatrix type="matrix" values="0 0 0 0 0 0 0 0 0 0 0 0 0 0 0 0 0 0 0.25 0"/>
<feBlend mode="normal" in2="shape" result="effect1_innerShadow_4854_168"/>
</filter>
</defs>
</svg>
