<svg width="30" height="30" viewBox="0 0 30 30" fill="none" xmlns="http://www.w3.org/2000/svg">
<mask id="mask0_4745_317" style="mask-type:alpha" maskUnits="userSpaceOnUse" x="0" y="0" width="30" height="30">
<rect width="30" height="30" fill="#D9D9D9"/>
</mask>
<g mask="url(#mask0_4745_317)">
<path d="M27.5 27.5L22.5 22.5H10C9.3125 22.5 8.72396 22.2552 8.23438 21.7656C7.74479 21.276 7.5 20.6875 7.5 20V18.75H21.25C21.9375 18.75 22.526 18.5052 23.0156 18.0156C23.5052 17.526 23.75 16.9375 23.75 16.25V7.5H25C25.6875 7.5 26.276 7.74479 26.7656 8.23438C27.2552 8.72396 27.5 9.3125 27.5 10V27.5ZM5 15.2188L6.46875 13.75H18.75V5H5V15.2188ZM2.5 21.25V5C2.5 4.3125 2.74479 3.72396 3.23438 3.23438C3.72396 2.74479 4.3125 2.5 5 2.5H18.75C19.4375 2.5 20.026 2.74479 20.5156 3.23438C21.0052 3.72396 21.25 4.3125 21.25 5V13.75C21.25 14.4375 21.0052 15.026 20.5156 15.5156C20.026 16.0052 19.4375 16.25 18.75 16.25H7.5L2.5 21.25Z" fill="white"/>
</g>
</svg>
