<svg width="34" height="34" viewBox="0 0 34 34" fill="none" xmlns="http://www.w3.org/2000/svg">
<mask id="mask0_4724_930" style="mask-type:alpha" maskUnits="userSpaceOnUse" x="0" y="0" width="34" height="34">
<rect width="34" height="34" fill="#D9D9D9"/>
</mask>
<g mask="url(#mask0_4724_930)">
<path d="M13.9902 18.5937C13.1638 17.7673 12.7507 16.7638 12.7507 15.5833V7.08325C12.7507 5.9027 13.1638 4.89922 13.9902 4.07284C14.8166 3.24645 15.8201 2.83325 17.0007 2.83325C18.1812 2.83325 19.1847 3.24645 20.0111 4.07284C20.8375 4.89922 21.2507 5.9027 21.2507 7.08325V15.5833C21.2507 16.7638 20.8375 17.7673 20.0111 18.5937C19.1847 19.4201 18.1812 19.8333 17.0007 19.8333C15.8201 19.8333 14.8166 19.4201 13.9902 18.5937ZM15.584 29.7499V25.3937C13.1284 25.0631 11.0979 23.9652 9.49232 22.0999C7.88676 20.2346 7.08398 18.0624 7.08398 15.5833H9.91732C9.91732 17.543 10.6079 19.2135 11.9892 20.5947C13.3704 21.976 15.0409 22.6666 17.0007 22.6666C18.9604 22.6666 20.6309 21.976 22.0121 20.5947C23.3934 19.2135 24.084 17.543 24.084 15.5833H26.9173C26.9173 18.0624 26.1145 20.2346 24.509 22.0999C22.9034 23.9652 20.8729 25.0631 18.4173 25.3937V29.7499H15.584ZM18.01 16.5926C18.2816 16.3211 18.4173 15.9846 18.4173 15.5833V7.08325C18.4173 6.68186 18.2816 6.3454 18.01 6.07388C17.7385 5.80235 17.402 5.66658 17.0007 5.66658C16.5993 5.66658 16.2628 5.80235 15.9913 6.07388C15.7197 6.3454 15.584 6.68186 15.584 7.08325V15.5833C15.584 15.9846 15.7197 16.3211 15.9913 16.5926C16.2628 16.8642 16.5993 16.9999 17.0007 16.9999C17.402 16.9999 17.7385 16.8642 18.01 16.5926Z" fill="#C2C1C1"/>
</g>
</svg>
