<svg width="171" height="91" viewBox="0 0 171 91" fill="none" xmlns="http://www.w3.org/2000/svg">
<path d="M170.635 48.2292L12.9129 90.5231L0 42.2939L157.722 0L170.635 48.2292H170.635ZM16.12 84.9637L165.079 45.0197L154.514 5.55934L5.55515 45.5034L16.1209 84.9637H16.12Z" fill="#39B54A" fill-opacity="0.8"/>
<path d="M34.532 58.9607C34.5274 58.7453 34.5663 58.5448 34.6498 58.3591C34.7324 58.1744 34.7407 57.9553 34.673 57.7018C34.6053 57.4493 34.5849 57.2237 34.6118 57.0259C34.6387 56.8291 34.6303 56.6007 34.5877 56.3407C34.5738 56.2906 34.558 56.2544 34.5385 56.2321C34.519 56.2108 34.5033 56.1746 34.4893 56.1235C34.4077 55.8199 34.3864 55.5405 34.4244 55.2861C34.4624 55.0317 34.4411 54.7522 34.3595 54.4486C34.3056 54.2462 34.2222 54.0856 34.1108 53.9659C33.9995 53.847 33.916 53.6855 33.8622 53.4831C33.8288 53.3568 33.8242 53.2426 33.8501 53.1405C33.8761 53.0384 33.8817 52.9632 33.8687 52.9121C33.8483 52.836 33.7954 52.7626 33.7101 52.6902C33.6247 52.6187 33.5681 52.5315 33.5412 52.4303C33.4392 52.0506 33.2434 51.7163 32.954 51.4276C32.6636 51.1389 32.4623 50.7796 32.3463 50.3488L32.2749 50.0832C32.0355 49.9848 31.8324 49.8697 31.6654 49.7379C31.4975 49.607 31.3769 49.4018 31.3017 49.1233C31.1978 48.9339 31.0327 48.7881 30.8063 48.686C30.5799 48.5839 30.3879 48.4864 30.2302 48.3926C30.0586 48.2487 29.8665 48.0769 29.6541 47.8755C29.4407 47.6749 29.2255 47.5626 29.0075 47.5403C28.9036 47.3509 28.6772 47.2488 28.3284 47.2339C27.9796 47.2191 27.6539 47.1439 27.3524 47.0074C27.1901 46.9972 27.0463 46.9545 26.9201 46.8793C26.7939 46.805 26.6622 46.7586 26.5249 46.741C26.3802 46.6982 26.2123 46.689 26.0202 46.7131C25.8282 46.7382 25.6287 46.7642 25.4246 46.7911C25.382 46.8301 25.3235 46.8589 25.2493 46.8793C25.0758 46.9257 24.9292 46.9248 24.8105 46.8746C24.6908 46.8254 24.5442 46.8236 24.3717 46.87L24.2604 46.8997C24.1026 46.8069 23.9245 46.7864 23.7269 46.8394C23.6026 46.8728 23.4709 46.922 23.3289 46.987C23.187 47.052 23.0543 47.1012 22.9309 47.1346C22.7575 47.181 22.5923 47.1847 22.4365 47.1448C22.2797 47.1058 22.1025 47.1123 21.9049 47.1652C21.7064 47.2182 21.5013 47.2934 21.2889 47.3918C21.0764 47.4893 20.8742 47.5784 20.6831 47.6564C20.1135 47.8096 19.5392 47.9432 18.9594 48.0574C18.3796 48.1726 17.7933 48.309 17.1986 48.4687C17.0817 48.5272 16.9546 48.5746 16.8192 48.6117C16.6828 48.6479 16.5529 48.6832 16.4295 48.7166C16.0083 48.8299 15.564 48.9283 15.0955 49.0128C14.627 49.0973 14.1705 49.1994 13.7243 49.3192C13.5759 49.3591 13.4349 49.4036 13.3022 49.4529C13.1695 49.5021 13.0406 49.5429 12.9172 49.5763C12.9376 49.6525 12.8124 49.7063 12.5424 49.7379C12.2724 49.7694 11.9988 49.8632 11.7223 50.0192C11.4458 50.1752 11.2167 50.4333 11.0339 50.7944C10.8521 51.1556 10.8558 51.6903 11.046 52.3996C11.1007 52.603 11.1722 52.8954 11.2612 53.2779C11.3503 53.6613 11.4802 53.925 11.6518 54.0689C11.6536 54.1775 11.6592 54.2704 11.6676 54.3493C11.675 54.4291 11.6676 54.5257 11.6462 54.6399L11.6666 54.716L11.7037 54.7058C11.7603 54.7179 11.8448 54.8107 11.957 54.9834C12.0693 55.157 12.15 55.3325 12.1973 55.5089C12.2316 55.6361 12.2446 55.7605 12.2381 55.8849C12.2316 56.0084 12.2455 56.1346 12.2789 56.2609C12.3401 56.4884 12.4209 56.6434 12.5229 56.7251C12.5572 56.8523 12.5656 56.9851 12.5507 57.1253C12.535 57.2654 12.5442 57.3982 12.5786 57.5254C12.6129 57.6526 12.6704 57.7724 12.7548 57.8856C12.8383 57.9998 12.8968 58.1196 12.9311 58.2459C12.9719 58.3981 12.9998 58.5532 13.0165 58.7119C13.0322 58.8707 13.061 59.0257 13.1018 59.178C13.1491 59.3553 13.1955 59.4788 13.241 59.5475C13.2317 59.7127 13.2512 59.8845 13.2985 60.0609C13.3458 60.2382 13.4126 60.3905 13.4998 60.5158C13.5861 60.6421 13.6436 60.7563 13.6705 60.8566C13.7178 61.0339 13.6918 61.1833 13.5916 61.305C13.4914 61.4275 13.4655 61.577 13.5128 61.7534C13.5397 61.8546 13.5981 61.9484 13.6872 62.0319C13.7763 62.1173 13.8375 62.2222 13.8718 62.3485C13.9061 62.4757 13.9163 62.615 13.9043 62.7672C13.8913 62.9204 13.9033 63.0597 13.9367 63.1859C13.9572 63.2621 14.0147 63.3549 14.1112 63.4645C14.2067 63.5749 14.306 63.6706 14.4071 63.7513C14.3403 64.0949 14.3607 64.4699 14.4693 64.8747C14.4962 64.9759 14.5277 65.0697 14.5639 65.1542C14.6001 65.2396 14.6279 65.3204 14.6483 65.3965C14.6622 65.4476 14.6706 65.5803 14.6761 65.7966C14.8088 66.1959 14.9303 66.5979 15.0389 67.0017C15.1474 67.4074 15.2597 67.8252 15.3747 68.2551C15.5102 68.762 15.628 69.2522 15.7291 69.7275C15.8293 70.2029 15.9415 70.668 16.0631 71.1239C16.0974 71.2511 16.1447 71.3801 16.2069 71.5129C16.269 71.6456 16.32 71.7877 16.3609 71.9399C16.3952 72.0671 16.4091 72.1711 16.4054 72.2538L16.3683 72.264C16.4972 72.4469 16.5882 72.639 16.642 72.8414C16.6893 73.0188 16.7227 73.1933 16.7422 73.3641C16.7616 73.5359 16.795 73.7104 16.8424 73.8868C16.8767 74.014 16.9091 74.1134 16.9425 74.1858C16.975 74.2582 17.0084 74.3585 17.0427 74.4847C17.0836 74.637 17.1151 74.805 17.1374 74.9889C17.1596 75.1727 17.1949 75.3537 17.2422 75.5311C17.2765 75.6582 17.3331 75.7715 17.4129 75.8718C17.4927 75.972 17.5428 76.0612 17.5632 76.1364C17.5771 76.1874 17.5706 76.2162 17.5465 76.2227C17.5214 76.2292 17.5159 76.258 17.5298 76.3091L17.5771 76.3369C17.5437 76.5087 17.5437 76.6581 17.5771 76.7844C17.6318 76.9877 17.7376 77.1623 17.8972 77.309C18.0558 77.4566 18.1662 77.6441 18.2274 77.8716C18.3805 78.048 18.5642 78.1408 18.7794 78.151C18.9937 78.1612 19.2377 78.1297 19.5105 78.0563C19.683 78.0099 19.8611 77.9551 20.0439 77.8929C20.2257 77.8298 20.4038 77.776 20.5773 77.7295C20.7072 77.7212 20.8473 77.698 20.9957 77.658C21.1442 77.6181 21.3047 77.5754 21.4781 77.529C21.7008 77.4696 21.903 77.4083 22.0858 77.3461C22.2676 77.283 22.4578 77.2263 22.6563 77.1725C22.7797 77.1391 22.8577 77.1316 22.8892 77.1511L23.1118 77.0917C23.2844 77.0453 23.4532 77.0063 23.6184 76.9766C23.7826 76.946 23.9514 76.9079 24.1249 76.8615C24.5953 76.7352 24.9404 76.5616 25.1593 76.3397C25.3783 76.1178 25.5323 75.778 25.6222 75.3194C25.5638 75.1996 25.5072 75.065 25.4543 74.9164C25.4005 74.7679 25.3578 74.6305 25.3235 74.5033C25.2289 74.1486 25.1575 73.8088 25.1101 73.482C25.0628 73.1562 24.9914 72.8154 24.8968 72.4608C24.8634 72.3345 24.8179 72.2175 24.7632 72.1098C24.7075 72.0021 24.663 71.8861 24.6296 71.7589L24.6092 71.6828C24.5953 71.6326 24.5749 71.6039 24.547 71.5974C24.5192 71.5918 24.4951 71.55 24.4747 71.4748C24.4607 71.4247 24.4561 71.3309 24.4589 71.1944C24.4626 71.058 24.4468 70.927 24.4125 70.7999C24.3513 70.5724 24.2947 70.4108 24.2427 70.3162C24.2399 70.2085 24.2186 70.0785 24.1778 69.9262C24.137 69.774 24.0832 69.6468 24.0154 69.5428C23.9477 69.4388 23.8651 69.3051 23.7687 69.1408C23.7149 68.9384 23.6944 68.7406 23.7093 68.5457C23.7232 68.3526 23.7 68.1409 23.6397 67.9134C23.6731 67.7417 23.7195 67.594 23.7798 67.4687C23.8392 67.3443 23.919 67.2218 24.0191 67.0992C24.1193 66.9776 24.2678 66.8903 24.4663 66.8365C24.5405 66.817 24.6834 66.8058 24.8949 66.803L25.1547 66.7334C25.4265 66.6601 25.689 66.6248 25.9414 66.6239C26.1937 66.6239 26.4433 66.5914 26.691 66.5245C26.7652 66.505 26.8375 66.479 26.909 66.4456C26.9795 66.4131 27.0611 66.3713 27.1539 66.3193C27.4146 66.3045 27.6447 66.2692 27.8423 66.2163C28.1642 66.1299 28.4536 65.9981 28.7115 65.8208C28.9685 65.6434 29.3823 65.4782 29.9519 65.325C30.1987 65.2591 30.4788 65.1365 30.7887 64.9583C31.0995 64.78 31.4028 64.5767 31.6997 64.3474C31.9966 64.119 32.2702 63.8758 32.5198 63.6186C32.7694 63.3623 32.9725 63.1312 33.1302 62.926C33.2174 62.6586 33.3547 62.4246 33.5403 62.226C33.7258 62.0273 33.8492 61.797 33.9123 61.5362C33.8585 61.3338 33.8826 61.1778 33.9865 61.0682C34.0895 60.9587 34.1424 60.8092 34.1452 60.6189C34.2008 60.3329 34.3019 60.0674 34.4504 59.8251C34.597 59.5818 34.6276 59.2959 34.5394 58.9663L34.532 58.9607ZM26.0703 56.3445C26.0972 56.4457 26.1306 56.5459 26.1705 56.6434C26.2095 56.7418 26.2438 56.8412 26.2707 56.9424C26.2188 57.1466 26.1668 57.323 26.1139 57.4725C26.0611 57.6229 26.0341 57.7928 26.0314 57.9831C25.921 58.3656 25.7271 58.6822 25.4497 58.9329C25.1714 59.1845 24.8578 59.3971 24.5062 59.5726C24.1555 59.748 23.777 59.8975 23.3716 60.0191C22.9662 60.1417 22.5719 60.2809 22.1897 60.4378C21.9643 60.3905 21.7704 60.2856 21.6089 60.1259C21.4466 59.9662 21.2889 59.7982 21.1358 59.6218L21.095 59.4695C21.0616 59.3432 21.0143 59.2198 20.9558 59.1C20.8974 58.9802 20.851 58.8567 20.8167 58.7305C20.7629 58.5281 20.7211 58.2746 20.6924 57.9701C20.6636 57.6665 20.6126 57.3741 20.5374 57.0955C20.504 56.9693 20.428 56.8133 20.312 56.6267C20.196 56.441 20.0754 56.364 19.952 56.3974L19.9149 56.4076C20.0318 56.3491 20.107 56.234 20.1413 56.0622C20.1747 55.8905 20.1923 55.7094 20.1951 55.5182C20.197 55.3279 20.2211 55.145 20.2675 54.9695C20.3129 54.794 20.4196 54.6715 20.5866 54.599C20.7146 54.483 20.8686 54.3883 21.0477 54.3131C21.2267 54.2388 21.4076 54.1488 21.5932 54.0448C21.8251 54.1191 22.0542 54.1321 22.2806 54.0847C22.507 54.0383 22.725 54.0132 22.9374 54.0104C23.2723 53.9752 23.5534 54.0076 23.7798 54.1098C24.0062 54.2119 24.2622 54.2518 24.5479 54.2295C24.6788 54.2221 24.7799 54.2555 24.8541 54.3307C24.9274 54.4069 24.9895 54.4913 25.0415 54.586C25.0934 54.6807 25.1519 54.7745 25.2159 54.8646C25.2799 54.9565 25.381 55.0103 25.5183 55.028C25.5592 55.1802 25.6324 55.2824 25.7401 55.3353C25.8467 55.3882 25.9423 55.4718 26.0258 55.5841C25.9738 55.7883 25.9887 56.0418 26.0703 56.3454V56.3445Z" fill="#39B54A" fill-opacity="0.8"/>
<path d="M65.0429 63.6446C64.9752 63.392 64.8555 63.1934 64.6839 63.0485C64.5123 62.9046 64.375 62.7384 64.2711 62.5481C64.1987 62.3782 64.1282 62.2139 64.0596 62.0551C63.9909 61.8973 63.9028 61.7655 63.7942 61.6578C63.5484 61.5343 63.3415 61.305 63.1717 60.9698C63.0029 60.6356 62.8591 60.3478 62.7422 60.1083C62.5465 59.9708 62.3693 59.7805 62.2116 59.5382C62.0529 59.2959 61.9008 59.0452 61.7514 58.7862C61.603 58.5281 61.4508 58.2839 61.2968 58.0537C61.1419 57.8244 60.9675 57.6405 60.7708 57.5022C60.7569 57.4521 60.7513 57.4056 60.7541 57.3639C60.756 57.323 60.7504 57.2766 60.7374 57.2255C60.6558 56.9219 60.5046 56.7047 60.2838 56.5738C60.063 56.4438 59.8904 56.2451 59.7661 55.9796L59.7355 55.8654C59.6678 55.6129 59.5629 55.4439 59.421 55.3594C59.279 55.2749 59.1594 55.1515 59.0629 54.9871C59.0666 54.9045 59.0527 54.8005 59.0184 54.6733C58.9441 54.3948 58.8133 54.2063 58.6278 54.1061C58.4422 54.0067 58.3114 53.8183 58.2372 53.5388C58.2511 53.5899 58.2094 53.5332 58.112 53.3689C58.0146 53.2055 57.9097 53.1117 57.7975 53.0867L57.7567 52.9344C57.675 52.6308 57.5312 52.3913 57.3253 52.2158C57.1193 52.0403 56.9987 51.8899 56.9653 51.7627C56.9514 51.7126 56.944 51.6606 56.9431 51.6058C56.9421 51.552 56.9347 51.5 56.9208 51.4489L56.88 51.2967C56.4607 50.9207 56.1332 50.4388 55.8957 49.8511C55.6257 49.7342 55.4383 49.5058 55.3344 49.1669C55.2305 48.828 55.07 48.5523 54.8538 48.3388C54.775 48.1429 54.6498 47.9999 54.48 47.9098C54.3102 47.8198 54.1942 47.661 54.133 47.4326C54.1061 47.3314 54.0978 47.2525 54.1089 47.1949C54.0096 47.2219 53.9233 47.1699 53.8491 47.0408C53.7749 46.9118 53.7007 46.7614 53.6293 46.5906C53.5569 46.4207 53.479 46.2508 53.3936 46.0836C53.3092 45.9165 53.1979 45.8246 53.0606 45.807C53.0467 45.7568 53.0429 45.7169 53.0485 45.6881C53.0541 45.6603 53.0504 45.6204 53.0365 45.5693C52.9548 45.2657 52.8027 45.0689 52.58 44.9788C52.3574 44.8897 52.208 44.7059 52.1338 44.4264C52.1004 44.3002 52.0846 44.1952 52.0893 44.1126C51.9445 44.0699 51.8341 43.9771 51.7562 43.835C51.6783 43.693 51.6059 43.5491 51.541 43.4042C51.4751 43.2594 51.4055 43.122 51.3313 42.992C51.2571 42.863 51.156 42.7608 51.0307 42.6856C50.8906 42.2623 50.6838 41.9104 50.4101 41.631C50.1364 41.3515 49.9166 41.0034 49.7523 40.5856C49.5316 40.4556 49.3302 40.346 49.1475 40.2588C48.9647 40.1724 48.7736 40.1019 48.5732 40.0462C48.3728 39.9914 48.1854 39.9877 48.0129 40.0341C47.8394 40.0805 47.6761 40.1381 47.5221 40.2068C47.3672 40.2755 47.2327 40.3395 47.1158 40.3971C47.01 40.399 46.8579 40.4259 46.6603 40.4788C46.536 40.5122 46.4265 40.5484 46.3309 40.5874C46.2354 40.6274 46.15 40.6561 46.0758 40.6766C45.9088 40.749 45.7455 40.8056 45.5851 40.8492C45.4236 40.8929 45.2696 40.9337 45.1212 40.9737C44.4774 41.1463 43.8558 41.2791 43.2574 41.3719C42.6581 41.4648 42.0375 41.5975 41.3936 41.7702C41.1209 41.8436 40.8583 41.9281 40.6051 42.0228C40.3518 42.1184 40.1097 42.2781 39.8778 42.5028C39.8332 42.7321 39.733 42.928 39.5781 43.0923C39.4232 43.2557 39.335 43.4497 39.3156 43.6716L39.387 43.9372C39.489 44.3169 39.4492 44.6669 39.2701 44.9863C39.1801 45.1469 39.1671 45.3465 39.2321 45.5869C39.297 45.8283 39.3026 46.0502 39.2515 46.2535C39.3128 46.481 39.2951 46.6899 39.1996 46.8784C39.104 47.0668 39.0586 47.2692 39.0632 47.4846C39.04 47.5997 39.0539 47.7251 39.104 47.8606C39.1532 47.9971 39.1671 48.1224 39.1449 48.2366C39.0011 48.4929 38.9704 48.7992 39.053 49.1567C39.1356 49.5151 39.1115 49.8474 38.9816 50.1529C38.8601 50.294 38.8294 50.5261 38.8897 50.8492C38.95 51.1732 38.9528 51.3821 38.899 51.4777C38.8341 51.6309 38.809 51.7869 38.8248 51.9456C38.8406 52.1044 38.8582 52.2697 38.8777 52.4405C38.8972 52.6122 38.9018 52.7803 38.8934 52.9455C38.8842 53.1108 38.8443 53.2575 38.7719 53.3847C38.8285 53.6957 38.8035 53.9733 38.6968 54.2193C38.5901 54.4654 38.5808 54.7532 38.6689 55.0818L38.6996 55.196C38.5623 55.4773 38.5112 55.7558 38.5446 56.0316C38.579 56.3073 38.5641 56.5756 38.502 56.8374C38.4862 56.9776 38.4704 57.1178 38.4556 57.2571C38.4398 57.3973 38.4277 57.5495 38.4185 57.7148C38.3043 57.8819 38.2802 58.0917 38.348 58.3443C38.4157 58.5977 38.4083 58.8168 38.3248 59.0016C38.3201 59.3832 38.296 59.7629 38.2515 60.1407C38.2069 60.5195 38.1819 60.8993 38.1782 61.2799C38.1689 61.4452 38.1698 61.6216 38.18 61.8082C38.1902 61.9957 38.1875 62.1591 38.1717 62.2993C38.1578 62.2492 38.142 62.2872 38.1225 62.4144C38.103 62.5416 38.0789 62.6976 38.0483 62.8824C38.0186 63.0671 37.9908 63.2379 37.9657 63.393C37.9407 63.549 37.9156 63.6306 37.8915 63.6371C37.9611 63.7003 38.013 63.795 38.0474 63.9212C38.1021 64.1246 38.0752 64.3 37.9704 64.4504C37.8646 64.6008 37.8386 64.7772 37.8934 64.9796L37.9444 65.17C37.9991 65.3733 38.013 65.5246 37.9871 65.6267C37.9611 65.7289 37.9249 65.8672 37.8795 66.0427C37.8331 66.2181 37.7793 66.4632 37.718 66.778C37.6568 67.0936 37.6169 67.5653 37.5993 68.1938L37.6503 68.3841C37.7115 68.6116 37.6883 68.801 37.5835 68.9514C37.4778 69.1018 37.4239 69.2726 37.4221 69.4629L37.4629 69.6152C37.5176 69.8185 37.5056 69.9977 37.4277 70.1537C37.3507 70.3106 37.3386 70.4898 37.3924 70.6922C37.4675 70.9707 37.474 71.2195 37.4137 71.4395C37.3534 71.6596 37.3739 71.9594 37.4759 72.3392C37.5705 72.6938 37.8043 72.9231 38.1773 73.0262C38.5493 73.1302 38.9343 73.1283 39.3304 73.0225C39.503 72.9761 39.669 72.925 39.8267 72.8693C39.9835 72.8136 40.1375 72.7653 40.2859 72.7254C40.5578 72.652 40.8296 72.6 41.0996 72.5685C41.3695 72.5369 41.6404 72.4849 41.9132 72.4116C42.1599 72.3457 42.351 72.2398 42.4856 72.095C42.6191 71.9502 42.8103 71.8452 43.058 71.7784C43.1563 71.7524 43.3743 71.7208 43.7092 71.6846C44.0441 71.6484 44.3855 71.5844 44.7325 71.4915C44.8809 71.4516 45.0442 71.3198 45.2232 71.0951C45.4023 70.8704 45.5665 70.6439 45.7177 70.4127C45.7752 70.2345 45.7882 70.0339 45.7558 69.812C45.7224 69.5911 45.7038 69.372 45.6992 69.1556C45.8383 68.9829 45.8726 68.7156 45.8031 68.3544C45.7326 67.9933 45.7131 67.673 45.7446 67.3926C45.7057 67.0509 45.6871 66.7835 45.6899 66.5932C45.6917 66.4029 45.7279 66.2163 45.7994 66.0343C45.8699 65.8523 46.0044 65.7354 46.2029 65.6815C46.4005 65.6286 46.6037 65.5673 46.8106 65.4986C47.0174 65.4299 47.2327 65.3649 47.4553 65.3055C47.7271 65.2322 48.0027 65.1727 48.2828 65.1245C48.5621 65.0771 48.8376 65.0168 49.1104 64.9434C49.308 64.8905 49.4787 64.8107 49.6234 64.7039C49.7672 64.5981 49.8943 64.5024 50.0047 64.4189C50.5001 64.2861 50.9769 64.1858 51.4362 64.1162C51.8954 64.0475 52.4093 63.937 52.9789 63.7838C53.1765 63.7309 53.3565 63.6826 53.517 63.639C53.6775 63.5963 53.838 63.5257 53.9976 63.4283L54.0347 63.418L54.5542 63.2788C54.7518 63.2259 54.9791 63.2054 55.2342 63.2184C55.4893 63.2314 55.6647 63.4153 55.7602 63.7699L55.8317 64.0354C55.8864 64.2388 55.9996 64.3641 56.1712 64.4124C56.3438 64.4616 56.4569 64.5869 56.5107 64.7893C56.5154 65.0056 56.5284 65.1514 56.5488 65.2275C56.6239 65.506 56.7659 65.7186 56.9783 65.8653C57.1898 66.012 57.3336 66.2246 57.4078 66.5032C57.4283 66.5793 57.4403 66.725 57.4459 66.9414C57.7595 67.3192 58.176 67.5123 58.6964 67.5226C59.216 67.5318 59.7485 67.4641 60.294 67.3183C60.5658 67.245 60.8144 67.1586 61.0398 67.0574C61.2644 66.9562 61.513 66.8699 61.7857 66.7965C62.1318 66.7037 62.5001 66.6183 62.8916 66.5403C63.2821 66.4623 63.6504 66.3778 63.9974 66.284L64.3685 66.1847L64.3954 66.1364C64.5577 66.1466 64.6756 66.1429 64.7498 66.1225C64.9223 66.0761 65.0531 65.9935 65.1413 65.8746C65.2285 65.7558 65.2925 65.623 65.3333 65.4773C65.3741 65.3315 65.4196 65.183 65.4734 65.0326C65.5263 64.8831 65.6042 64.7531 65.7081 64.6445C65.6404 64.3919 65.5272 64.2183 65.3695 64.1246C65.2118 64.0317 65.1023 63.8702 65.0411 63.6427L65.0429 63.6446ZM51.7664 57.3926C51.6931 57.4669 51.5985 57.5328 51.4816 57.5913C51.3647 57.6498 51.2413 57.7102 51.1124 57.7714C50.9825 57.8336 50.8916 57.9126 50.8378 58.0082C50.7033 58.0992 50.5669 58.1623 50.4314 58.1985C50.2951 58.2347 50.1652 58.27 50.0418 58.3034C49.5714 58.4297 49.1206 58.503 48.6883 58.5244C48.2559 58.5457 47.8041 58.6191 47.3338 58.7453C47.2095 58.7788 47.0926 58.8103 46.9813 58.84C46.8699 58.8697 46.7558 58.9143 46.6389 58.9728C46.5304 58.866 46.3875 58.776 46.2085 58.7017C46.0294 58.6274 45.92 58.5142 45.8791 58.3628C45.8745 58.1474 45.8699 57.932 45.8652 57.7148C45.8671 57.5245 45.8652 57.3425 45.8578 57.167C45.8513 56.9925 45.855 56.8356 45.8708 56.6954C45.8838 56.4475 45.9209 56.2136 45.9812 55.9935C46.0415 55.7735 46.035 55.5247 45.9598 55.2462L45.9088 55.0558C45.9292 54.8339 45.971 54.6185 46.035 54.4115C46.099 54.2045 46.0934 53.9622 46.0192 53.6827L45.9682 53.4924C45.9766 53.3271 45.997 53.1795 46.0285 53.0486C46.0591 52.9177 46.0962 52.7803 46.1361 52.6327C46.1092 52.5315 46.0786 52.4442 46.0461 52.3718C46.0127 52.2994 45.984 52.2121 45.9561 52.1109C45.8819 51.8324 45.9023 51.5901 46.0192 51.3812C46.1361 51.1741 46.15 50.9049 46.0619 50.5753C46.0656 50.4927 46.074 50.423 46.0851 50.3655C46.0962 50.3089 46.0916 50.242 46.0712 50.1659L46.0406 50.0517C46.0424 49.8614 46.0628 49.6664 46.1027 49.4649C46.1417 49.2653 46.3226 49.1214 46.6445 49.0351C46.7289 49.0128 46.7985 49.0072 46.8551 49.0184L47.036 49.2765C47.0805 49.3897 47.1186 49.5141 47.1483 49.6534C47.1946 49.8725 47.3264 49.9858 47.5407 49.996L47.78 50.3367C47.7791 50.4091 47.7912 50.4945 47.8171 50.5939C47.8719 50.7972 47.9433 50.9671 48.0342 51.1054C48.2977 51.1973 48.4675 51.4099 48.5435 51.7423C48.6187 52.0747 48.7745 52.3319 49.0083 52.5129C49.1076 52.7849 49.2477 53.0124 49.4295 53.1934C49.6104 53.3754 49.7421 53.6186 49.8238 53.9222C49.9323 54.029 50.09 54.224 50.2988 54.5071C50.5075 54.7912 50.7162 55.1013 50.9259 55.4383C51.1356 55.7763 51.3276 56.0975 51.5029 56.403C51.6774 56.7093 51.7822 56.9256 51.8156 57.0519C51.8564 57.2042 51.8397 57.3174 51.7673 57.3908L51.7664 57.3926Z" fill="#39B54A" fill-opacity="0.8"/>
<path d="M85.0802 48.0937L85.0496 47.9795C85.0087 47.8272 84.9317 47.7399 84.8195 47.7158C84.7063 47.6917 84.6302 47.6035 84.5894 47.4521C84.5829 47.4271 84.5838 47.4066 84.5931 47.3899C84.6024 47.3741 84.6033 47.3537 84.5968 47.3277C84.4744 46.8719 84.2573 46.5302 83.9437 46.3018C83.6302 46.0744 83.3092 45.8413 82.9808 45.6037C82.7729 45.2258 82.3304 44.9101 81.6523 44.6567C80.9741 44.4051 80.3386 44.2092 79.744 44.069C79.3719 43.8703 78.9517 43.8128 78.4841 43.8982C78.0156 43.9827 77.5221 44.0003 77.0053 43.9483C76.9061 43.9752 76.6983 43.9901 76.381 43.9938C76.0637 43.9975 75.8142 43.9567 75.6314 43.8694C75.4236 43.7895 75.1944 43.7765 74.944 43.8295C74.6925 43.8833 74.4578 43.8991 74.2398 43.8759C73.9402 43.848 73.6359 43.8007 73.326 43.7338C73.0162 43.6679 72.7174 43.5918 72.4289 43.5064C72.1404 43.421 71.8964 43.3031 71.697 43.1527C71.4975 43.0022 71.3676 42.8138 71.3064 42.5854C71.2795 42.4842 71.26 42.3876 71.2489 42.2957C71.2377 42.2038 71.2183 42.1073 71.1914 42.0061L71.1301 41.7786C71.0763 41.5762 71.0661 41.4434 71.1023 41.3785C71.0392 41.3413 70.9975 41.2847 70.9771 41.2086C70.9566 41.1324 71.0299 41.0108 71.1978 40.8437C71.3648 40.6766 71.5745 40.4918 71.825 40.2885C72.0755 40.0861 72.3501 39.8967 72.6488 39.7212C72.9466 39.5467 73.2193 39.426 73.467 39.3592C73.8381 39.2598 74.1248 39.2645 74.3261 39.3731C74.5274 39.4817 74.764 39.5003 75.0367 39.4269C75.3586 39.3406 75.6991 39.3248 76.0581 39.3768C76.4172 39.4297 76.7224 39.5309 76.9757 39.6804C77.074 39.6544 77.1482 39.6822 77.1974 39.7639C77.2456 39.8466 77.3198 39.8735 77.4191 39.8475C77.5787 40.049 77.7837 40.1437 78.0323 40.1307C78.281 40.1186 78.5045 40.0852 78.7021 40.0323C78.9489 39.9663 79.1688 39.7175 79.358 39.2867C79.5473 38.856 79.6484 38.4632 79.6595 38.1067C79.5714 37.7781 79.6048 37.4568 79.7597 37.143C79.9147 36.8302 79.9592 36.4523 79.8933 36.0076C79.8887 35.7922 79.9212 35.5666 79.9907 35.3298C80.0603 35.094 80.0891 34.8554 80.0779 34.614C80.1141 34.55 80.1076 34.4776 80.0594 34.3949C80.0111 34.3132 80.0046 34.2408 80.0408 34.1758C79.8108 33.9122 79.5649 33.6865 79.3024 33.499C79.0398 33.3115 78.7402 33.1815 78.4016 33.1091C78.2615 32.9837 78.1028 32.9113 77.9247 32.8909C77.7466 32.8714 77.5638 32.8593 77.3774 32.8547C77.19 32.851 77.01 32.8454 76.8356 32.8371C76.6612 32.8296 76.4951 32.7795 76.3374 32.6857C76.1825 32.7006 76.0173 32.7043 75.8429 32.6959C75.6685 32.6885 75.5006 32.6792 75.3382 32.6681C75.3132 32.6746 75.2139 32.6746 75.0395 32.6672C74.8651 32.6597 74.6536 32.6625 74.405 32.6746C74.1554 32.6876 73.8966 32.7089 73.6266 32.7405C73.3566 32.7721 73.1219 32.8148 72.9243 32.8677C72.8251 32.8946 72.7341 32.9262 72.6507 32.9615C72.5672 32.9977 72.4883 33.0255 72.4141 33.045C72.2156 33.0979 72.0347 33.1128 71.8686 33.0896C71.7035 33.0664 71.5207 33.0812 71.3231 33.1341L71.1747 33.1741L70.8778 33.2539C70.5067 33.3532 70.2089 33.4814 69.9853 33.6355C69.7617 33.7905 69.4881 33.9112 69.1671 33.9976C69.117 34.0106 69.0539 34.0217 68.976 34.0282C68.898 34.0356 68.835 34.0458 68.7849 34.0588C68.5622 34.1183 68.3043 34.2492 68.0139 34.4488C67.7226 34.6493 67.4796 34.8304 67.2829 34.991C67.1855 35.1256 67.0621 35.2333 66.9118 35.3141C66.7606 35.3958 66.6122 35.483 66.4647 35.5768C66.3171 35.6715 66.178 35.7699 66.0463 35.872C65.9145 35.9751 65.8319 36.1125 65.7985 36.2842C65.6705 36.4003 65.5462 36.508 65.4275 36.6073C65.3078 36.7076 65.1844 36.8153 65.0564 36.9304C65.0165 37.0771 64.9673 37.2192 64.9117 37.3556C64.8551 37.493 64.7827 37.6416 64.6927 37.8013C64.4543 38.0018 64.3003 38.2664 64.2289 38.5969C64.1584 38.9284 64.0257 39.2282 63.8327 39.4966C63.7836 39.8085 63.7149 40.0982 63.6277 40.3656C63.5405 40.6329 63.4904 40.9458 63.4802 41.3005C63.4616 41.333 63.4486 41.4787 63.4384 41.7396C63.4282 42.0005 63.4273 42.292 63.4338 42.616C63.4412 42.94 63.4524 43.2557 63.4681 43.563C63.4839 43.8712 63.5089 44.0885 63.5433 44.2148C63.5702 44.316 63.5962 44.3633 63.6212 44.3568C63.6481 44.458 63.6694 44.5611 63.6843 44.666C63.6991 44.7709 63.7205 44.8739 63.7474 44.9751C63.842 45.3298 63.983 45.6584 64.1704 45.9611C64.3569 46.2638 64.4849 46.5423 64.5526 46.7948C64.5795 46.896 64.5972 46.9861 64.6055 47.0659C64.6129 47.1458 64.6278 47.2228 64.6482 47.2989C64.6955 47.4763 64.7957 47.6527 64.9497 47.8291C65.1028 48.0055 65.2475 48.102 65.3857 48.1197C65.5509 48.5374 65.7883 48.8327 66.101 49.0063C66.4127 49.1808 66.7263 49.3619 67.0417 49.5476C67.0556 49.5986 67.1391 49.6636 67.2931 49.7444C67.4471 49.8252 67.628 49.9059 67.8358 49.9858C68.0427 50.0665 68.2533 50.1325 68.4657 50.1835C68.6782 50.2355 68.8535 50.2699 68.9908 50.2866C69.5994 50.4769 70.2469 50.6422 70.9353 50.7833C71.6227 50.9244 72.3055 50.9727 72.9837 50.9263C73.0329 50.9133 73.1785 50.9355 73.4197 50.9922C73.66 51.0497 73.8929 51.0488 74.1155 50.9885C74.3948 50.9411 74.6656 50.9634 74.9291 51.0553C75.1926 51.1472 75.4598 51.1574 75.7325 51.0841L75.8067 51.0646C76.2706 51.2122 76.7326 51.3524 77.1937 51.487C77.6538 51.6216 78.023 51.9094 78.3004 52.3504C78.3839 52.4646 78.4414 52.6048 78.473 52.7719C78.5045 52.94 78.5927 53.0449 78.7365 53.0876L78.7467 53.1257C78.7606 53.1767 78.7764 53.2129 78.7958 53.2343C78.8144 53.2566 78.8283 53.2807 78.8348 53.3048C78.8487 53.3559 78.8459 53.3977 78.8283 53.4283L78.8589 53.5425C78.9137 53.7458 78.8932 53.9204 78.8005 54.0671C78.7068 54.2147 78.6279 54.3651 78.563 54.5174C78.665 54.8971 78.6047 55.2183 78.383 55.482C78.1613 55.7447 77.9312 55.9768 77.6928 56.1755C77.587 56.1774 77.4599 56.1969 77.3115 56.2368C77.0387 56.3101 76.7892 56.4178 76.5619 56.5599C76.3346 56.7019 76.0721 56.8133 75.7752 56.8932C75.6741 56.8124 75.5516 56.7771 75.4087 56.7883C75.2659 56.8003 75.1184 56.8189 74.9662 56.8458C74.8141 56.8727 74.6666 56.8922 74.5237 56.9034C74.3808 56.9154 74.2463 56.8829 74.1201 56.8077C73.827 56.805 73.5561 56.7353 73.3075 56.5979C73.0579 56.4615 72.7805 56.3668 72.4744 56.312C72.2916 56.2256 72.0857 56.1244 71.8556 56.0093C71.6255 55.8951 71.3945 55.8004 71.1626 55.7271C70.9511 55.7299 70.7961 55.6491 70.6997 55.4848C70.6023 55.3214 70.4603 55.2369 70.2738 55.2322C70.1477 55.158 70.003 55.0883 69.8397 55.0233C69.6764 54.9593 69.4955 54.9528 69.2979 55.0057C69.1244 55.0521 68.9704 55.1208 68.8359 55.2109C68.8025 55.3826 68.7403 55.5219 68.6485 55.6277C68.5576 55.7336 68.462 55.8478 68.3618 55.9694C68.2616 56.0919 68.1716 56.2238 68.09 56.3677C68.0093 56.5116 67.9796 56.6759 68.0028 56.8597C68 57.051 67.9629 57.2302 67.8887 57.3992C67.8145 57.5681 67.7356 57.7454 67.6531 57.9302C67.5093 58.1864 67.4128 58.4696 67.3636 58.7816C67.3144 59.0935 67.218 59.3776 67.0742 59.6329C67.1011 59.7341 67.076 59.8158 66.9999 59.8771C66.9229 59.9384 66.8988 60.0201 66.9257 60.1213C66.9229 60.3125 66.9183 60.5168 66.9109 60.7359C66.9035 60.9559 66.9127 61.1156 66.9396 61.2168C67.0547 61.6476 67.2578 61.9595 67.5482 62.1526C67.8386 62.3467 68.1652 62.4757 68.5279 62.5416C68.5214 62.5166 68.5557 62.5212 68.6309 62.5546C68.706 62.589 68.7969 62.6326 68.9045 62.6846C69.0112 62.7375 69.1105 62.7858 69.2014 62.8285C69.2923 62.8721 69.3536 62.9037 69.386 62.9214C69.6133 63.0783 69.848 63.1367 70.0902 63.0987C70.3323 63.0615 70.5447 63.1395 70.7303 63.3345C70.9307 63.3893 71.119 63.4478 71.2943 63.509C71.4697 63.5703 71.6636 63.6 71.8751 63.5972C71.9066 63.6158 72.0495 63.6316 72.3055 63.6446C72.5607 63.6576 72.8362 63.6715 73.1331 63.6873C73.429 63.7031 73.699 63.7189 73.942 63.7346C74.1851 63.7504 74.3345 63.7653 74.391 63.7773L74.4653 63.7579C74.5144 63.7449 74.5506 63.7551 74.5738 63.7903C74.5961 63.8247 74.635 63.8479 74.6916 63.86C74.9634 63.7866 75.2288 63.7365 75.4867 63.7077C75.7437 63.6799 75.9969 63.6316 76.2446 63.5657C76.5164 63.4923 76.7539 63.3883 76.9571 63.2528C77.587 63.029 78.2299 62.8304 78.8867 62.654C79.5426 62.4785 80.1382 62.2501 80.6745 61.9707C81.1875 61.8054 81.6411 61.5687 82.0363 61.2595C82.4315 60.9503 82.7915 60.7108 83.1181 60.5418C83.3017 60.1398 83.5717 59.8093 83.928 59.5512C84.2833 59.2931 84.5375 58.9542 84.6905 58.5327C84.7685 58.4306 84.8213 58.3285 84.8473 58.2264C84.8733 58.1242 84.941 58.0323 85.0514 57.9478C85.1275 57.738 85.2499 57.5756 85.4188 57.4623C85.5876 57.3499 85.6693 57.1856 85.6646 56.9693C85.763 56.6444 85.8483 56.3166 85.9188 55.9852C85.9893 55.6547 86.058 55.3167 86.1257 54.9732C86.2222 54.8395 86.2769 54.6956 86.289 54.5424C86.301 54.3902 86.2973 54.2286 86.2788 54.0569C86.2593 53.886 86.2537 53.7171 86.263 53.5518C86.2714 53.3866 86.3205 53.225 86.4114 53.0644C86.3706 52.9121 86.3261 52.7209 86.2778 52.4897C86.2287 52.2585 86.1786 52.0218 86.1266 51.7767C86.0747 51.5334 86.0431 51.3171 86.0329 51.1296C86.0227 50.943 86.0385 50.8297 86.0812 50.7907C85.9095 50.3478 85.7574 49.8799 85.6257 49.386C85.493 48.8921 85.3112 48.4595 85.0792 48.0872L85.0802 48.0937Z" fill="#39B54A" fill-opacity="0.8"/>
<path d="M107.883 41.9791L107.852 41.8649C107.811 41.7127 107.734 41.6254 107.622 41.6013C107.509 41.5771 107.433 41.4889 107.392 41.3376C107.385 41.3125 107.386 41.2921 107.396 41.2754C107.405 41.2596 107.406 41.2392 107.399 41.2132C107.277 40.7573 107.06 40.4157 106.746 40.1873C106.433 39.9598 106.112 39.7268 105.783 39.4891C105.576 39.1112 105.133 38.7956 104.455 38.5421C103.777 38.2905 103.141 38.0946 102.547 37.9544C102.175 37.7558 101.754 37.6982 101.287 37.7836C100.818 37.8681 100.325 37.8857 99.8079 37.8338C99.7086 37.8607 99.5008 37.8755 99.1836 37.8792C98.8663 37.883 98.6167 37.8421 98.434 37.7548C98.2261 37.675 97.997 37.662 97.7465 37.7149C97.4951 37.7688 97.2604 37.7845 97.0424 37.7613C96.7427 37.7335 96.4384 37.6861 96.1286 37.6193C95.8187 37.5534 95.52 37.4772 95.2315 37.3918C94.943 37.3064 94.699 37.1885 94.4995 37.0381C94.3001 36.8877 94.1702 36.6992 94.1089 36.4708C94.082 36.3696 94.0626 36.2731 94.0514 36.1812C94.0403 36.0893 94.0208 35.9927 93.9939 35.8915L93.9327 35.6641C93.8789 35.4617 93.8687 35.3289 93.9049 35.2639C93.8418 35.2268 93.8 35.1701 93.7796 35.094C93.7592 35.0179 93.8325 34.8963 94.0004 34.7291C94.1674 34.562 94.3771 34.3773 94.6275 34.1739C94.878 33.9716 95.1526 33.7822 95.4514 33.6067C95.7492 33.4321 96.0219 33.3115 96.2696 33.2446C96.6407 33.1453 96.9273 33.1499 97.1287 33.2585C97.33 33.3672 97.5665 33.3857 97.8393 33.3124C98.1612 33.226 98.5017 33.2103 98.8607 33.2622C99.2197 33.3152 99.525 33.4164 99.7782 33.5658C99.8766 33.5398 99.9508 33.5677 99.9999 33.6494C100.048 33.732 100.122 33.7589 100.222 33.733C100.381 33.9344 100.586 34.0291 100.835 34.0161C101.084 34.0041 101.307 33.9706 101.505 33.9177C101.751 33.8518 101.971 33.603 102.161 33.1722C102.35 32.7414 102.451 32.3487 102.462 31.9922C102.374 31.6635 102.407 31.3423 102.562 31.0285C102.717 30.7156 102.762 30.3377 102.696 29.893C102.691 29.6776 102.724 29.452 102.793 29.2153C102.863 28.9795 102.892 28.7409 102.88 28.4995C102.917 28.4354 102.91 28.363 102.862 28.2804C102.814 28.1987 102.807 28.1263 102.843 28.0613C102.613 27.7976 102.367 27.572 102.105 27.3845C101.842 27.1969 101.543 27.0669 101.204 26.9945C101.064 26.8692 100.905 26.7968 100.727 26.7764C100.549 26.7569 100.366 26.7448 100.18 26.7401C99.9925 26.7364 99.8125 26.7309 99.6381 26.7225C99.4637 26.7151 99.2977 26.6649 99.14 26.5712C98.985 26.586 98.8199 26.5897 98.6455 26.5814C98.4711 26.574 98.3032 26.5647 98.1408 26.5535C98.1158 26.56 98.0165 26.56 97.8421 26.5526C97.6677 26.5452 97.4561 26.548 97.2075 26.56C96.958 26.573 96.6991 26.5944 96.4292 26.626C96.1592 26.6575 95.9245 26.7002 95.7269 26.7531C95.6276 26.7801 95.5367 26.8116 95.4532 26.8469C95.3697 26.8831 95.2909 26.911 95.2166 26.9305C95.0181 26.9834 94.8372 26.9982 94.6711 26.975C94.506 26.9518 94.3233 26.9667 94.1256 27.0196L93.9772 27.0595L93.6803 27.1394C93.3093 27.2387 93.0115 27.3668 92.7879 27.5209C92.5643 27.676 92.2906 27.7967 91.9696 27.883C91.9195 27.896 91.8565 27.9072 91.7785 27.9137C91.7006 27.9211 91.6375 27.9313 91.5874 27.9443C91.3648 28.0037 91.1069 28.1346 90.8165 28.3342C90.5252 28.5348 90.2821 28.7158 90.0854 28.8764C89.988 29.011 89.8647 29.1187 89.7144 29.1995C89.5631 29.2812 89.4147 29.3685 89.2672 29.4623C89.1197 29.5569 88.9805 29.6554 88.8488 29.7575C88.7171 29.8605 88.6345 29.9979 88.6011 30.1697C88.4731 30.2858 88.3488 30.3935 88.23 30.4928C88.1103 30.5931 87.987 30.7008 87.8589 30.8159C87.819 30.9626 87.7699 31.1046 87.7142 31.2411C87.6576 31.3785 87.5853 31.527 87.4953 31.6867C87.2569 31.8873 87.1029 32.1519 87.0314 32.4824C86.9609 32.8138 86.8282 33.1137 86.6353 33.382C86.5861 33.694 86.5175 33.9836 86.4303 34.251C86.3431 34.5184 86.293 34.8313 86.2828 35.1859C86.2642 35.2184 86.2512 35.3642 86.241 35.6241C86.2308 35.885 86.2299 36.1765 86.2373 36.5006C86.2447 36.8246 86.2558 37.1402 86.2716 37.4475C86.2874 37.7558 86.3124 37.973 86.3468 38.0993C86.3737 38.2005 86.3996 38.2478 86.4247 38.2413C86.4516 38.3425 86.4729 38.4456 86.4878 38.5505C86.5026 38.6554 86.524 38.7585 86.5509 38.8596C86.6455 39.2143 86.7865 39.543 86.9739 39.8456C87.1604 40.1483 87.2884 40.4268 87.3561 40.6793C87.383 40.7805 87.4006 40.8706 87.409 40.9504C87.4164 41.0303 87.4313 41.1073 87.4517 41.1835C87.499 41.3608 87.5992 41.5372 87.7532 41.7136C87.9063 41.89 88.0519 41.9865 88.1892 42.0042C88.3543 42.422 88.5918 42.7172 88.9045 42.8908C89.2162 43.0654 89.5298 43.2464 89.8452 43.4321C89.8591 43.4831 89.9426 43.5481 90.0966 43.6289C90.2506 43.7097 90.4315 43.7905 90.6393 43.8703C90.8462 43.9511 91.0568 44.017 91.2692 44.068C91.4817 44.12 91.657 44.1544 91.7943 44.1711C92.4029 44.3614 93.0504 44.5267 93.7388 44.6678C94.4262 44.8089 95.109 44.8572 95.7872 44.8108C95.8364 44.7978 95.982 44.8201 96.2232 44.8767C96.4635 44.9343 96.6963 44.9333 96.919 44.873C97.1982 44.8256 97.4691 44.8479 97.7326 44.9398C97.9961 45.0317 98.2633 45.042 98.536 44.9686L98.6102 44.9491C99.0741 45.0967 99.5361 45.2369 99.9972 45.3715C100.457 45.5062 100.827 45.794 101.104 46.235C101.187 46.3492 101.245 46.4893 101.276 46.6565C101.308 46.8245 101.396 46.9294 101.54 46.9721L101.55 47.0102C101.564 47.0613 101.58 47.0975 101.599 47.1188C101.618 47.1411 101.632 47.1652 101.638 47.1894C101.652 47.2404 101.649 47.2822 101.632 47.3129L101.662 47.427C101.717 47.6304 101.697 47.8049 101.604 47.9516C101.51 48.0992 101.431 48.2496 101.366 48.4019C101.469 48.7816 101.408 49.1028 101.186 49.3665C100.965 49.6292 100.735 49.8613 100.496 50.06C100.391 50.0619 100.263 50.0814 100.115 50.1213C99.8422 50.1946 99.5927 50.3023 99.3654 50.4444C99.1381 50.5864 98.8755 50.6978 98.5787 50.7777C98.4776 50.6969 98.3551 50.6616 98.2122 50.6728C98.0694 50.6848 97.9219 50.7034 97.7697 50.7303C97.6176 50.7573 97.4701 50.7768 97.3272 50.7879C97.1843 50.8 97.0498 50.7675 96.9236 50.6923C96.6305 50.6895 96.3596 50.6199 96.111 50.4825C95.8614 50.346 95.584 50.2513 95.2779 50.1965C95.0951 50.1102 94.8892 50.009 94.66 49.8938C94.4299 49.7796 94.1989 49.6849 93.967 49.6116C93.7555 49.6144 93.6006 49.5336 93.5041 49.3693C93.4067 49.2059 93.2647 49.1214 93.0783 49.1168C92.9521 49.0425 92.8074 48.9729 92.6441 48.9079C92.4808 48.8438 92.2999 48.8373 92.1023 48.8902C91.9288 48.9366 91.7748 49.0054 91.6403 49.0954C91.6069 49.2672 91.5447 49.4064 91.4529 49.5123C91.362 49.6181 91.2664 49.7323 91.1662 49.8539C91.066 49.9765 90.9761 50.1083 90.8944 50.2522C90.8128 50.3961 90.784 50.5604 90.8072 50.7443C90.8044 50.9355 90.7673 51.1147 90.6931 51.2837C90.6189 51.4526 90.54 51.63 90.4575 51.8147C90.3137 52.071 90.2172 52.3541 90.168 52.6661C90.1188 52.978 90.0224 53.2621 89.8786 53.5174C89.9055 53.6186 89.8804 53.7003 89.8044 53.7616C89.7274 53.8229 89.7032 53.9046 89.7301 54.0058C89.7274 54.197 89.7227 54.4013 89.7153 54.6204C89.7079 54.8404 89.7172 55.0001 89.7441 55.1013C89.8591 55.5321 90.0623 55.844 90.3526 56.0371C90.643 56.2312 90.9696 56.3602 91.3323 56.4262C91.3258 56.4011 91.3601 56.4057 91.4353 56.4392C91.5104 56.4735 91.6013 56.5171 91.7089 56.5691C91.8156 56.6221 91.9149 56.6703 92.0068 56.713C92.0977 56.7567 92.1589 56.7882 92.1904 56.8059C92.4177 56.9628 92.6524 57.0213 92.8946 56.9832C93.1367 56.9461 93.3492 57.0241 93.5347 57.219C93.7351 57.2738 93.9234 57.3323 94.0987 57.3936C94.2741 57.4548 94.468 57.4845 94.6795 57.4818C94.711 57.5003 94.8539 57.5161 95.11 57.5291C95.3651 57.5421 95.6406 57.556 95.9375 57.5718C96.2334 57.5876 96.5034 57.6034 96.7464 57.6192C96.9895 57.635 97.1389 57.6498 97.1955 57.6619L97.2697 57.6424C97.3188 57.6294 97.355 57.6396 97.3782 57.6749C97.4005 57.7092 97.4394 57.7324 97.496 57.7445C97.7679 57.6712 98.0332 57.621 98.2911 57.5922C98.5481 57.5644 98.8013 57.5161 99.049 57.4502C99.3208 57.3769 99.5583 57.2729 99.7615 57.1373C100.391 56.9136 101.034 56.7149 101.691 56.5385C102.347 56.363 102.943 56.1346 103.479 55.8552C103.992 55.6899 104.446 55.4532 104.841 55.144C105.236 54.8349 105.596 54.5953 105.922 54.4264C106.106 54.0243 106.376 53.6938 106.732 53.4357C107.088 53.1776 107.342 52.8388 107.495 52.4173C107.573 52.3151 107.626 52.213 107.652 52.1109C107.678 52.0088 107.745 51.9169 107.856 51.8324C107.932 51.6225 108.054 51.4601 108.223 51.3468C108.392 51.2345 108.474 51.0701 108.469 50.8538C108.567 50.5289 108.653 50.2011 108.723 49.8697C108.794 49.5392 108.862 49.2012 108.93 48.8577C109.027 48.724 109.081 48.5801 109.093 48.4269C109.105 48.2747 109.102 48.1131 109.083 47.9414C109.064 47.7706 109.058 47.6016 109.067 47.4363C109.076 47.2711 109.125 47.1095 109.216 46.9489C109.175 46.7966 109.131 46.6054 109.082 46.3742C109.033 46.1431 108.983 45.9063 108.931 45.6612C108.879 45.418 108.848 45.2016 108.837 45.0141C108.827 44.8275 108.843 44.7142 108.886 44.6752C108.714 44.2324 108.562 43.7645 108.43 43.2705C108.297 42.7766 108.116 42.344 107.884 41.9717L107.883 41.9791Z" fill="#39B54A" fill-opacity="0.8"/>
<path d="M130.217 42.5854C130.156 42.3579 129.974 42.1008 129.672 41.8157C129.37 41.5307 129.081 41.3701 128.808 41.3348C128.691 41.3933 128.57 41.4388 128.447 41.4722C128.323 41.5056 128.199 41.5391 128.076 41.5716L127.036 41.8501C126.763 41.9234 126.499 42.0014 126.243 42.0831C125.987 42.1657 125.769 42.2716 125.591 42.4006C125.467 42.4341 125.342 42.461 125.215 42.4814C125.088 42.5018 124.961 42.5288 124.838 42.5622C124.69 42.6021 124.555 42.6448 124.435 42.6903C124.314 42.7367 124.191 42.7757 124.068 42.8091L124.041 42.8574C123.83 42.8602 123.609 42.8788 123.38 42.9131C123.151 42.9484 122.924 42.9948 122.701 43.0542C122.428 43.1276 122.175 43.2223 121.941 43.3393C121.707 43.4572 121.491 43.5417 121.292 43.5946C121.045 43.6614 120.785 43.6085 120.514 43.4367C120.242 43.265 120.076 43.0654 120.015 42.8379C119.982 42.7117 119.959 42.5817 119.95 42.448C119.941 42.3152 119.919 42.1852 119.885 42.058C119.852 41.9318 119.788 41.8194 119.696 41.722C119.603 41.6245 119.55 41.5511 119.537 41.5001C119.504 41.3738 119.512 41.2559 119.562 41.1473C119.613 41.0386 119.614 40.8957 119.567 40.7183C119.553 40.6682 119.535 40.6255 119.513 40.5902C119.49 40.5559 119.472 40.5132 119.459 40.4621C119.405 40.2597 119.455 40.0768 119.61 39.9125C119.765 39.7491 119.96 39.6089 120.194 39.491C120.428 39.374 120.681 39.2793 120.954 39.206C121.226 39.1326 121.461 39.0704 121.66 39.0166C121.982 38.9302 122.24 38.9089 122.438 38.9506C122.635 38.9934 122.869 38.9776 123.142 38.9042C123.315 38.8578 123.475 38.7882 123.624 38.6935C123.771 38.5997 123.931 38.5292 124.105 38.4827C124.402 38.4029 124.712 38.3472 125.036 38.3147C125.359 38.2831 125.681 38.2228 126.003 38.1364C126.127 38.103 126.24 38.0529 126.341 37.9851C126.442 37.9173 126.554 37.8672 126.679 37.8338C126.728 37.8208 126.767 37.8171 126.796 37.8226C126.823 37.8291 126.862 37.8254 126.912 37.8115C126.984 37.6843 127.105 37.5905 127.275 37.5311C127.445 37.4726 127.547 37.3566 127.58 37.1848C127.758 37.0558 127.816 36.8032 127.755 36.4254C127.694 36.0484 127.626 35.7207 127.552 35.4422C127.518 35.3159 127.486 35.1952 127.455 35.081C127.425 34.9668 127.38 34.8508 127.322 34.7301C127.305 34.5713 127.277 34.4163 127.236 34.264C127.195 34.1118 127.152 33.9474 127.104 33.7701C127.05 33.5677 126.993 33.3588 126.936 33.1434C126.878 32.929 126.8 32.7386 126.704 32.5743C126.732 32.4852 126.72 32.3394 126.666 32.1361C126.612 31.9337 126.5 31.7397 126.331 31.554C126.162 31.3692 125.995 31.217 125.831 31.0981L125.794 31.1083C125.744 31.1213 125.722 31.1139 125.728 31.0851C125.733 31.0573 125.711 31.0489 125.662 31.0619L125.588 31.0814C125.284 31.1362 124.982 31.1965 124.681 31.2634C124.381 31.3302 124.082 31.4036 123.785 31.4834C123.092 31.6691 122.421 31.8901 121.773 32.1454C121.692 32.1407 121.601 32.1509 121.503 32.1769C121.404 32.2039 121.292 32.2336 121.169 32.267C120.896 32.3403 120.652 32.4193 120.436 32.5037C120.22 32.5892 119.988 32.6644 119.74 32.7312C119.616 32.7646 119.481 32.8008 119.332 32.8408C119.184 32.8807 119.032 32.9076 118.877 32.9225C118.826 32.9355 118.734 32.9605 118.598 32.9967C118.462 33.0329 118.3 33.0497 118.114 33.045C117.927 33.0413 117.753 32.9856 117.592 32.8798C117.43 32.7739 117.312 32.5817 117.238 32.3032C117.224 32.2531 117.219 32.2067 117.222 32.1649C117.223 32.124 117.218 32.0776 117.205 32.0265C117.184 31.9504 117.129 31.8436 117.039 31.7044C117.061 31.5902 117.045 31.4314 116.991 31.229C116.958 31.1028 116.915 30.9709 116.866 30.8354C116.816 30.6998 116.775 30.5689 116.741 30.4417C116.599 29.9098 116.67 29.5105 116.957 29.2441C117.244 28.9776 117.573 28.7938 117.944 28.6945C118.093 28.6545 118.243 28.6211 118.395 28.5942C118.547 28.5673 118.698 28.5339 118.846 28.4939C119.019 28.4475 119.152 28.3983 119.244 28.3463C119.572 28.286 119.923 28.2321 120.296 28.1866C120.668 28.1411 121.028 28.0715 121.375 27.9787C121.697 27.8923 121.99 27.7735 122.254 27.6203C122.519 27.468 122.787 27.3557 123.06 27.2824C123.306 27.2164 123.558 27.1626 123.813 27.1208C124.067 27.08 124.331 27.0224 124.603 26.95C124.925 26.8636 125.122 26.7299 125.192 26.548C125.263 26.366 125.368 26.1896 125.508 26.016C125.39 25.7765 125.319 25.6056 125.291 25.5044C125.237 25.302 125.192 25.0894 125.16 24.8675C125.127 24.6466 125.084 24.434 125.029 24.2307C124.996 24.1044 124.946 23.9679 124.88 23.8231C124.814 23.6783 124.761 23.5288 124.72 23.3774C124.673 23.2001 124.654 23.0358 124.667 22.8826C124.679 22.7303 124.666 22.5781 124.625 22.4258C124.598 22.3246 124.544 22.2234 124.464 22.1232C124.384 22.0229 124.327 21.9096 124.294 21.7824C124.253 21.6302 124.251 21.4751 124.288 21.3154C124.325 21.1567 124.351 21.0072 124.367 20.867C124.134 20.4957 123.78 20.2849 123.303 20.2366C122.825 20.1883 122.438 20.2041 122.141 20.284C121.894 20.3508 121.654 20.4214 121.422 20.4975C121.19 20.5736 120.95 20.6442 120.703 20.711C120.579 20.7445 120.468 20.7742 120.369 20.8011C120.27 20.828 120.167 20.8419 120.062 20.8429C119.648 20.9812 119.23 21.1065 118.81 21.2198C118.389 21.3331 117.955 21.4491 117.51 21.568C116.891 21.7342 116.293 21.8808 115.717 22.008C115.141 22.1362 114.567 22.2754 113.999 22.4286C113.874 22.462 113.751 22.4955 113.628 22.5279C113.503 22.5614 113.411 22.6134 113.351 22.6839C112.737 22.7675 112.07 22.9049 111.352 23.098C111.104 23.1648 110.858 23.2373 110.614 23.3162C110.37 23.396 110.112 23.4712 109.84 23.5446C109.641 23.5975 109.456 23.6476 109.283 23.694C109.11 23.7405 108.92 23.7776 108.716 23.8054C108.617 23.8324 108.516 23.8528 108.414 23.8658C108.311 23.8797 108.211 23.9001 108.111 23.9261C107.764 24.019 107.455 24.2789 107.186 24.7041C106.915 25.1303 106.827 25.5202 106.922 25.8739C106.956 26.0011 107.013 26.1144 107.093 26.2147C107.173 26.3159 107.23 26.4291 107.263 26.5554C107.29 26.6566 107.304 26.7819 107.304 26.9314C107.304 27.0809 107.328 27.2443 107.376 27.4216C107.451 27.7001 107.542 27.9675 107.65 28.2238C107.759 28.48 107.867 28.7149 107.979 28.9294C107.994 29.0881 108.023 29.2432 108.064 29.3954C108.105 29.5477 108.149 29.712 108.197 29.8893C108.238 30.0416 108.278 30.1929 108.319 30.3452C108.36 30.4974 108.413 30.646 108.479 30.7908C108.474 30.8735 108.484 30.9589 108.508 31.048C108.532 31.1371 108.553 31.2188 108.573 31.295C108.635 31.5224 108.7 31.6682 108.77 31.7313C108.761 31.8966 108.77 32.0303 108.798 32.1315C108.832 32.2586 108.88 32.3877 108.942 32.5205C109.004 32.6532 109.052 32.7832 109.085 32.9095C109.12 33.0367 109.139 33.1601 109.145 33.2799C109.15 33.4006 109.177 33.5501 109.225 33.7265C109.265 33.8787 109.313 34.0078 109.368 34.1155C109.423 34.2232 109.465 34.3271 109.492 34.4283C109.526 34.5555 109.541 34.6864 109.538 34.8229C109.535 34.9603 109.55 35.0912 109.585 35.2175C109.612 35.3187 109.656 35.4088 109.716 35.4877C109.778 35.5666 109.817 35.6436 109.838 35.7198C109.872 35.847 109.888 35.9574 109.887 36.0521C109.886 36.1478 109.903 36.2583 109.936 36.3854C109.971 36.5126 110.022 36.6064 110.092 36.6695C110.062 36.7587 110.075 36.9054 110.13 37.1077C110.164 37.2349 110.21 37.3575 110.269 37.4773C110.328 37.598 110.374 37.7205 110.408 37.8468C110.456 38.0241 110.441 38.2181 110.365 38.428C110.439 38.7065 110.499 38.9822 110.547 39.2542C110.593 39.5272 110.653 39.8029 110.728 40.0805C110.763 40.2077 110.794 40.3275 110.825 40.4417C110.856 40.5559 110.912 40.6691 110.996 40.7824C111.01 40.8335 111.036 40.9347 111.077 41.086C111.118 41.2383 111.142 41.3812 111.152 41.514C111.166 41.5651 111.183 41.6282 111.203 41.7043C111.224 41.7805 111.256 41.8529 111.302 41.9225C111.329 42.0237 111.365 42.1091 111.41 42.1787C111.424 42.2298 111.43 42.3022 111.429 42.3978C111.428 42.4935 111.441 42.5919 111.468 42.6931C111.515 42.8704 111.565 43.0338 111.619 43.1824C111.672 43.3309 111.735 43.4906 111.807 43.6614C111.788 43.8842 111.805 44.0968 111.858 44.2992C111.913 44.5026 111.977 44.6947 112.053 44.8776C112.128 45.0615 112.194 45.2536 112.248 45.456L112.309 45.6835C112.385 45.7717 112.448 45.9045 112.496 46.0818C112.551 46.2851 112.575 46.4745 112.569 46.6528C112.563 46.831 112.581 46.9953 112.622 47.1476C112.669 47.3249 112.728 47.4447 112.798 47.5078C112.828 47.7177 112.881 47.9405 112.958 48.1772C113.035 48.4149 113.084 48.6256 113.107 48.8085C113.154 48.9859 113.228 49.2588 113.326 49.6255C113.424 49.9932 113.528 50.359 113.64 50.722C113.75 51.0859 113.855 51.4044 113.955 51.6755C114.054 51.9475 114.129 52.0766 114.179 52.0636L114.216 52.0533C114.373 52.1471 114.52 52.2232 114.655 52.2817C114.789 52.3402 114.932 52.4043 115.084 52.4721C115.176 52.4201 115.309 52.3709 115.482 52.3244C115.754 52.2511 116.023 52.213 116.287 52.2102C116.552 52.2065 116.808 52.1722 117.055 52.1063C117.179 52.0728 117.292 52.0227 117.393 51.9549C117.494 51.8872 117.607 51.837 117.731 51.8036C117.78 51.7906 117.839 51.7878 117.908 51.7971C117.976 51.8055 118.048 51.7999 118.122 51.7804C118.146 51.7739 118.17 51.7609 118.192 51.7414C118.213 51.7219 118.236 51.7089 118.262 51.7024C118.454 51.7321 118.638 51.7238 118.812 51.6773C119.058 51.6114 119.286 51.5158 119.492 51.3932C119.698 51.2698 119.936 51.1723 120.209 51.0989C120.406 51.046 120.559 51.0182 120.664 51.0172L120.776 50.9875C120.899 50.9541 121.022 50.942 121.144 50.9495C121.265 50.9578 121.388 50.9448 121.512 50.9114C121.636 50.878 121.716 50.8093 121.755 50.7034C121.793 50.5976 121.911 50.5187 122.11 50.4658L122.369 50.3961C122.518 50.3562 122.623 50.3005 122.683 50.2309C123.149 50.1872 123.605 50.1055 124.05 49.9867C124.248 49.9338 124.445 49.8744 124.64 49.8084C124.834 49.7425 125.03 49.6831 125.229 49.6302L125.674 49.5104C125.897 49.451 126.051 49.3823 126.136 49.3052C126.199 49.3424 126.28 49.348 126.379 49.321L126.639 49.2514L126.75 49.2217L127.864 48.9227C128.26 48.8169 128.668 48.7278 129.086 48.6563C129.504 48.5848 129.887 48.5022 130.234 48.4093C130.308 48.3898 130.413 48.3341 130.547 48.2441C130.682 48.1531 130.811 48.037 130.932 47.8968C131.054 47.7566 131.151 47.6007 131.225 47.4317C131.3 47.2627 131.313 47.0891 131.265 46.9118C131.232 46.7855 131.195 46.7001 131.157 46.6556C131.109 46.4782 131.083 46.3028 131.075 46.1282C131.069 45.9537 131.038 45.7652 130.983 45.5628C130.956 45.4616 130.918 45.3706 130.87 45.288C130.822 45.2063 130.784 45.1144 130.757 45.0132C130.716 44.8609 130.689 44.7124 130.677 44.5666C130.664 44.4209 130.638 44.2714 130.597 44.1201C130.564 43.9938 130.505 43.874 130.421 43.7598C130.338 43.6466 130.283 43.5398 130.255 43.4377C130.222 43.3114 130.216 43.1703 130.241 43.0143C130.265 42.8593 130.262 42.7172 130.227 42.591L130.217 42.5854Z" fill="#39B54A" fill-opacity="0.8"/>
<path d="M156.688 27.4263C156.614 27.1477 156.525 26.7921 156.422 26.3576C156.319 25.9241 156.225 25.5017 156.142 25.0894C156.096 25.0198 156.032 24.9557 155.951 24.8963C155.868 24.8369 155.801 24.7599 155.749 24.6652C155.772 24.551 155.756 24.4191 155.703 24.2706C155.649 24.122 155.619 23.9818 155.609 23.8481C155.532 23.7609 155.473 23.6885 155.432 23.6309C155.39 23.5743 155.343 23.4991 155.292 23.4044C155.303 23.3477 155.296 23.2679 155.268 23.1667C155.194 22.8882 155.078 22.6551 154.921 22.4657C154.764 22.2773 154.662 22.0944 154.615 21.9171C154.632 21.8855 154.632 21.8307 154.611 21.7555C154.578 21.6292 154.487 21.5383 154.339 21.4826C154.192 21.4278 154.091 21.2987 154.037 21.0954L153.976 20.8679C153.928 20.6906 153.727 20.4121 153.374 20.0324C153.019 19.6526 152.703 19.337 152.424 19.0863C152.349 18.8078 152.135 18.5534 151.781 18.3222C151.426 18.0911 151.183 17.9267 151.051 17.8255C150.834 17.6129 150.597 17.4449 150.339 17.3242C150.081 17.2035 149.82 17.0967 149.557 17.0048C149.309 16.7727 149.047 16.6121 148.771 16.523C148.495 16.4338 148.206 16.3224 147.905 16.185C147.765 16.0597 147.598 16.0031 147.401 16.0142C147.204 16.0253 147.016 15.9891 146.833 15.9019C146.713 15.8527 146.596 15.8099 146.48 15.7728C146.364 15.7366 146.228 15.7255 146.072 15.7394C145.691 15.706 145.341 15.6094 145.02 15.4516C144.699 15.2938 144.312 15.2074 143.857 15.1935C143.436 15.3067 143.052 15.3346 142.706 15.278C142.359 15.2223 141.975 15.2501 141.554 15.3625C141.059 15.4952 140.553 15.5843 140.033 15.628C139.514 15.6725 138.958 15.7737 138.363 15.9334C138.041 16.0198 137.721 16.1126 137.403 16.211C137.085 16.3104 136.764 16.4032 136.443 16.4886C136.17 16.562 135.913 16.6177 135.671 16.6548C135.429 16.6929 135.184 16.7449 134.936 16.8108C134.788 16.8507 134.647 16.8953 134.514 16.9445C134.381 16.9937 134.24 17.0382 134.092 17.0782C133.993 17.1051 133.905 17.1218 133.827 17.1292C133.749 17.1367 133.653 17.1292 133.541 17.1042C133.473 17.1496 133.378 17.1886 133.254 17.2221C133.056 17.275 132.871 17.3047 132.7 17.3093C132.529 17.3149 132.357 17.3409 132.184 17.3864C131.911 17.4597 131.633 17.5609 131.35 17.6918C131.066 17.8227 130.763 17.9304 130.441 18.0168C130.243 18.0697 130.039 18.1245 129.828 18.1811C129.618 18.2377 129.41 18.2795 129.206 18.3074C129.106 18.3343 129.008 18.3399 128.912 18.325C128.814 18.3102 128.705 18.3194 128.58 18.3529C128.284 18.4327 128.066 18.688 127.929 19.1179C127.792 19.5487 127.755 19.8773 127.815 20.1048C127.856 20.257 127.913 20.3982 127.988 20.5263C128.062 20.6563 128.117 20.7835 128.15 20.9107C128.134 21.0508 128.156 21.2077 128.217 21.3814C128.276 21.5559 128.283 21.7035 128.236 21.8242C128.291 22.0275 128.324 22.2281 128.338 22.4277C128.352 22.6273 128.383 22.8167 128.43 22.9931C128.485 23.1964 128.569 23.3626 128.684 23.4954C128.68 23.578 128.692 23.6699 128.719 23.7711C128.746 23.8723 128.776 23.9865 128.81 24.1127C128.851 24.265 128.9 24.4006 128.96 24.5203C129.018 24.641 129.065 24.7636 129.099 24.8898C129.133 25.017 129.142 25.1498 129.127 25.29C129.111 25.4302 129.12 25.5629 129.155 25.6901C129.169 25.7412 129.22 25.8359 129.311 25.9742C129.345 26.1014 129.37 26.223 129.388 26.34C129.406 26.457 129.433 26.5795 129.466 26.7058C129.501 26.833 129.563 26.9175 129.654 26.9611C129.745 27.0048 129.814 27.1152 129.862 27.2926C129.896 27.4198 129.906 27.5321 129.892 27.6305C129.879 27.7298 129.889 27.8422 129.923 27.9684C129.964 28.1207 130.029 28.2655 130.119 28.4048C130.209 28.5431 130.296 28.6694 130.38 28.7827C130.312 28.8282 130.289 28.9637 130.31 29.1884C130.33 29.414 130.344 29.5393 130.35 29.5644C130.398 29.7417 130.472 29.8717 130.574 29.9525C130.565 30.1177 130.574 30.2514 130.602 30.3526C130.643 30.5049 130.696 30.6534 130.761 30.7983C130.826 30.944 130.88 31.0926 130.921 31.2439C130.955 31.3711 130.961 31.4918 130.939 31.606C130.915 31.7211 130.922 31.8418 130.956 31.9681C131.011 32.1714 131.159 32.3756 131.4 32.5817C131.427 32.6829 131.422 32.8138 131.385 32.9726C131.348 33.1323 131.353 33.3003 131.401 33.4777C131.448 33.655 131.503 33.7831 131.563 33.862C131.624 33.9409 131.709 34.0338 131.816 34.1396C131.83 34.1907 131.806 34.251 131.746 34.3216C131.685 34.3921 131.698 34.5927 131.787 34.9213C131.827 35.0736 131.867 35.1989 131.907 35.2964C131.946 35.3948 131.983 35.5072 132.018 35.6334L132.12 36.0131C132.187 36.2666 132.289 36.4022 132.428 36.4189C132.462 36.5461 132.468 36.6668 132.445 36.7809C132.423 36.8961 132.432 37.0288 132.473 37.1811C132.5 37.2823 132.549 37.3918 132.621 37.5079C132.692 37.6249 132.734 37.7084 132.748 37.7586C132.754 37.7836 132.745 37.8477 132.719 37.9498C132.693 38.0519 132.69 38.1411 132.711 38.2163C132.765 38.4196 132.853 38.5784 132.978 38.6944C133.101 38.8105 133.191 38.9701 133.245 39.1725C133.272 39.2737 133.281 39.3805 133.271 39.491C133.261 39.6024 133.273 39.7212 133.307 39.8475C133.341 39.9747 133.389 40.1037 133.451 40.2365C133.513 40.3693 133.561 40.4992 133.595 40.6255C133.629 40.7527 133.643 40.8567 133.639 40.9393C133.731 41.1863 133.81 41.4295 133.875 41.67C133.94 41.9114 134.006 42.1574 134.073 42.4108L134.409 43.6642C134.464 43.8675 134.521 44.0616 134.585 44.2482C134.649 44.4348 134.708 44.6297 134.762 44.8321C134.803 44.9844 134.816 45.1571 134.801 45.3511C134.786 45.5452 134.806 45.7438 134.86 45.9462C134.989 46.4272 135.299 46.6704 135.792 46.6732C136.283 46.6769 136.827 46.5989 137.421 46.4402C137.593 46.3937 137.772 46.3185 137.958 46.2146C138.23 46.1412 138.491 46.0781 138.743 46.0242C138.993 45.9704 139.255 45.9072 139.527 45.8339C139.676 45.794 139.829 45.7457 139.987 45.69C140.143 45.6343 140.297 45.586 140.446 45.5461L140.78 45.456C140.903 45.4226 140.983 45.3743 141.019 45.3103C141.262 45.3261 141.557 45.288 141.904 45.1952C142.028 45.1617 142.156 45.1209 142.289 45.0717C142.422 45.0225 142.55 44.9816 142.674 44.9482L142.934 44.8786C143.082 44.8386 143.174 44.7867 143.21 44.7226C143.274 44.7597 143.379 44.7588 143.528 44.7189L143.862 44.6288L143.973 44.5991L143.993 44.6752C144.535 44.4209 145.1 44.2018 145.688 44.017C146.276 43.8322 146.876 43.6447 147.488 43.4535C147.7 43.4507 147.917 43.42 148.139 43.3597C148.362 43.2993 148.51 43.2065 148.582 43.0784C148.639 43.0904 148.728 43.0802 148.852 43.0468C149.049 42.9939 149.201 42.9131 149.305 42.8036C149.408 42.694 149.559 42.6132 149.757 42.5603C149.806 42.5473 149.852 42.5418 149.893 42.5445C149.934 42.5473 149.978 42.5417 150.028 42.5288C150.185 42.3236 150.427 42.1843 150.752 42.111C151.077 42.0376 151.318 41.8984 151.475 41.6932C151.626 41.4629 151.84 41.2967 152.118 41.1956C152.396 41.0944 152.617 40.9532 152.782 40.7731C152.864 40.5884 153 40.45 153.188 40.359C153.375 40.2681 153.508 40.1177 153.584 39.9069C153.701 39.8484 153.78 39.7463 153.82 39.5996C153.861 39.4529 153.954 39.3601 154.103 39.3202C154.231 39.2041 154.337 39.0806 154.422 38.9497C154.506 38.8188 154.628 38.7046 154.788 38.6071C154.871 38.4224 154.978 38.2506 155.108 38.0937C155.238 37.9368 155.363 37.7808 155.481 37.6277C155.599 37.4735 155.701 37.3111 155.788 37.1384C155.875 36.9666 155.928 36.7689 155.948 36.5461C156.053 36.2471 156.193 35.9509 156.367 35.6604C156.542 35.3698 156.653 35.069 156.702 34.7561C156.669 34.6298 156.672 34.5203 156.713 34.4274C156.754 34.3346 156.81 34.2454 156.88 34.1591C156.95 34.0728 157.006 33.9827 157.047 33.8908C157.088 33.798 157.089 33.6763 157.048 33.5241C156.994 33.0237 157.025 32.5465 157.143 32.0943C157.261 31.6422 157.312 31.1882 157.295 30.7305C157.281 30.6803 157.25 30.6144 157.202 30.5318C157.154 30.4501 157.112 30.3461 157.079 30.2189C157.045 30.0927 157.052 29.9961 157.1 29.9283C157.148 29.8615 157.166 29.803 157.152 29.7519L157.122 29.6377C157.108 29.5876 157.11 29.5458 157.128 29.5143C157.146 29.4827 157.148 29.4418 157.135 29.3908C157.121 29.3406 157.099 29.2849 157.071 29.2246C157.041 29.1652 157.019 29.1095 157.006 29.0584C156.973 28.9321 156.971 28.8031 157.003 28.6722C157.033 28.5413 157.033 28.4132 156.999 28.2869C156.966 28.1606 156.915 28.0242 156.85 27.8793C156.784 27.7345 156.731 27.585 156.69 27.4337L156.688 27.4263ZM148.407 29.8708C148.468 29.9497 148.511 30.0397 148.538 30.1409C148.559 30.2171 148.56 30.2709 148.542 30.3025C148.403 30.4761 148.392 30.7091 148.51 31.0034C148.629 31.2977 148.65 31.5503 148.574 31.7601C148.49 31.9458 148.465 32.1491 148.498 32.371C148.531 32.5929 148.503 32.7841 148.413 32.9438C148.282 33.2502 148.139 33.5334 147.984 33.7915C147.828 34.0505 147.74 34.3457 147.723 34.6753C147.505 34.951 147.248 35.1831 146.954 35.3698C146.659 35.5573 146.411 35.7736 146.212 36.0169C145.994 36.2926 145.744 36.5024 145.464 36.6445C145.184 36.7874 144.896 36.9536 144.601 37.1402C144.554 37.2619 144.468 37.3389 144.345 37.3714C144.271 37.3909 144.193 37.3983 144.112 37.3928C144.031 37.3881 143.941 37.3983 143.842 37.4243C143.743 37.4513 143.66 37.4875 143.593 37.532C143.525 37.5775 143.429 37.6165 143.306 37.6499L142.935 37.7493C142.712 37.8087 142.567 37.8616 142.5 37.9071C142.337 37.8969 142.195 37.9071 142.071 37.9405C141.947 37.974 141.822 37.9535 141.696 37.8783C141.531 37.7595 141.417 37.5803 141.353 37.3389C141.289 37.0985 141.143 36.9546 140.919 36.9054C140.878 36.7531 140.856 36.5962 140.852 36.4346C140.848 36.2731 140.823 36.1032 140.776 35.9259C140.743 35.7996 140.698 35.6613 140.645 35.5127C140.592 35.3642 140.549 35.2268 140.515 35.0996C140.44 34.8211 140.443 34.6094 140.524 34.4664C140.604 34.3225 140.615 34.1368 140.553 33.9084C140.492 33.681 140.41 33.4721 140.307 33.2827C140.203 33.0933 140.124 32.8974 140.07 32.695C140.037 32.5687 140.025 32.4295 140.038 32.2763C140.05 32.124 140.04 31.9848 140.005 31.8576C139.964 31.7053 139.9 31.567 139.814 31.4407C139.727 31.3154 139.667 31.1891 139.633 31.0619C139.592 30.9097 139.563 30.749 139.543 30.5773C139.524 30.4065 139.49 30.2319 139.443 30.0546C139.348 29.6999 139.239 29.3425 139.116 28.9823C138.993 28.6221 138.885 28.2646 138.79 27.91C138.736 27.7076 138.728 27.5544 138.766 27.4485C138.804 27.3436 138.807 27.2276 138.772 27.1004C138.718 26.898 138.662 26.6891 138.604 26.4737C138.547 26.2592 138.435 26.0912 138.271 25.9724C138.302 25.6929 138.284 25.4265 138.217 25.173C138.135 24.8694 138.021 24.6419 137.875 24.4915C137.819 24.1814 137.903 23.928 138.129 23.7312C138.356 23.5353 138.53 23.4202 138.654 23.3867C138.852 23.3338 139.053 23.3143 139.256 23.3273C139.458 23.3412 139.658 23.3208 139.857 23.2679C139.98 23.2345 140.131 23.1537 140.309 23.0246C140.507 22.9717 140.657 22.9857 140.759 23.0674C140.86 23.1491 140.985 23.1695 141.133 23.1296C141.439 23.1834 141.803 23.1537 142.224 23.0404C142.231 23.0655 142.333 23.0998 142.53 23.1416C142.727 23.1843 142.977 23.2456 143.277 23.3282C143.578 23.4109 143.91 23.5121 144.274 23.6309C144.637 23.7507 144.985 23.8881 145.319 24.0422C145.403 24.1564 145.51 24.2622 145.644 24.3625C145.777 24.4628 145.906 24.55 146.033 24.6243C146.145 24.6484 146.234 24.7069 146.298 24.797C146.362 24.8889 146.416 24.9892 146.458 25.0997C146.501 25.2101 146.55 25.3197 146.606 25.4265C146.661 25.5341 146.745 25.6001 146.857 25.6233C146.864 25.6483 146.863 25.6697 146.854 25.6855C146.844 25.7022 146.843 25.7226 146.85 25.7477C146.932 26.0513 147.067 26.2871 147.257 26.4523C147.447 26.6185 147.58 26.8414 147.654 27.1189C147.675 27.1951 147.684 27.2805 147.683 27.3761C147.682 27.4717 147.691 27.5572 147.712 27.6333C147.773 27.8608 147.875 28.0715 148.02 28.2628C148.164 28.4549 148.264 28.6527 148.318 28.8551C148.372 29.0584 148.357 29.2515 148.274 29.4363L148.305 29.5505C148.318 29.6015 148.312 29.6303 148.288 29.6368C148.308 29.7129 148.349 29.79 148.409 29.8689L148.407 29.8708Z" fill="#39B54A" fill-opacity="0.8"/>
</svg>
