<svg width="38" height="38" viewBox="0 0 38 38" fill="none" xmlns="http://www.w3.org/2000/svg">
<mask id="mask0_4662_894" style="mask-type:alpha" maskUnits="userSpaceOnUse" x="0" y="0" width="38" height="38">
<rect width="38" height="38" fill="#D9D9D9"/>
</mask>
<g mask="url(#mask0_4662_894)">
<path d="M24 30.1667L21.7833 27.9104L27.4438 22.25H12.125C10.1458 22.25 8.46354 21.5573 7.07812 20.1719C5.69271 18.7865 5 17.1042 5 15.125C5 13.1458 5.69271 11.4635 7.07812 10.0781C8.46354 8.69271 10.1458 8 12.125 8H12.9167V11.1667H12.125C11.0167 11.1667 10.0799 11.5493 9.31458 12.3146C8.54931 13.0799 8.16667 14.0167 8.16667 15.125C8.16667 16.2333 8.54931 17.1701 9.31458 17.9354C10.0799 18.7007 11.0167 19.0833 12.125 19.0833H27.4438L21.7833 13.3833L24 11.1667L33.5 20.6667L24 30.1667Z" fill="white"/>
</g>
</svg>
