<svg width="210" height="41" viewBox="0 0 210 41" fill="none" xmlns="http://www.w3.org/2000/svg">
<path d="M8.58704 8.84861H13.6761L16.1243 23.6471H16.2684L19.1247 8.84861H23.1573L26.0379 23.7125H26.1819L28.6302 8.84861H33.7192L28.6066 32.5H24.2138L21.2134 18.9758H21.0693L18.0689 32.5H13.7003L8.58764 8.84861H8.58704Z" fill="white"/>
<path d="M44.0669 32.8263C39.0838 32.8263 35.2328 28.514 35.2328 20.674C35.2328 12.834 39.0838 8.52169 44.0669 8.52169C49.05 8.52169 52.8755 12.8013 52.8755 20.674C52.8755 28.5467 48.9997 32.8263 44.0669 32.8263ZM44.0669 13.9443C41.5502 13.9443 40.1656 16.329 40.1656 20.674C40.1656 25.019 41.5496 27.4037 44.0669 27.4037C46.5841 27.4037 47.9427 25.019 47.9427 20.674C47.9427 16.329 46.5587 13.9443 44.0669 13.9443Z" fill="white"/>
<path d="M70.069 32.5H66.0673L59.2971 19.7271H59.1711V32.5H54.389V8.84861H58.4664L65.1362 21.5561H65.2869V8.84861H70.069V32.5Z" fill="white"/>
<path d="M71.5825 32.5V8.84861H78.1336C83.4848 8.84861 86.82 13.2917 86.82 20.6746C86.82 28.0575 83.4848 32.5006 78.1814 32.5006H71.5825V32.5ZM78.0137 27.2075C80.7011 27.2075 82.2128 25.6722 82.2128 20.674C82.2128 15.6758 80.7011 14.1405 77.8933 14.1405H76.1418V27.2075H78.0137Z" fill="white"/>
<path d="M88.3335 8.84861H101.345V13.8795H93.1156V18.1591H100.666V23.1901H93.1156V27.4697H101.321V32.5006H88.3341V8.84861H88.3335Z" fill="white"/>
<path d="M102.859 8.84861H110.611C114.688 8.84861 117.355 11.8538 117.355 16.8521C117.355 20.1188 116.198 22.4381 114.235 23.6471L117.96 32.5H112.75L109.529 24.6273H107.641V32.5H102.859V8.84861ZM109.503 19.7592C111.315 19.7592 112.348 18.9098 112.348 16.8521C112.348 14.7943 111.316 13.8141 109.503 13.8141H107.641V19.7598H109.503V19.7592Z" fill="white"/>
<path d="M142.284 32.8263H138.309L131.584 20.0535H131.459V32.8263H126.709V9.17492H130.759L137.384 21.8824H137.534V9.17492H142.284V32.8263H142.284Z" fill="#FF871D"/>
<path d="M173.222 8.33704H187.216V13.368H182.327V31.9884H178.111V13.3674H173.222V8.33643V8.33704Z" fill="#FF871D"/>
<path d="M188.943 8.33704H200.538V13.368H193.204V17.6476H199.932V22.6785H193.204V26.9581H200.516V31.989H188.943V8.33704Z" fill="#FF871D"/>
<path d="M160.889 6.11217H160.289L158.515 3.55191H158.484V6.11217H157.812V2.36774H158.422L160.185 4.928H160.222V2.36774H160.889V6.11217Z" fill="#FF871D"/>
<path d="M148.855 19.425C149.554 14.8082 153.213 11.1498 157.83 10.4505V9.2276C152.544 9.9444 148.35 14.1393 147.633 19.4244H148.856L148.855 19.425Z" fill="#FF871D"/>
<path d="M161.049 10.4505C165.666 11.1498 169.324 14.8082 170.023 19.4251H171.246C170.529 14.1399 166.335 9.94501 161.049 9.22821V10.4511L161.049 10.4505Z" fill="#FF871D"/>
<path d="M157.829 31.6191C153.212 30.9199 149.554 27.2614 148.855 22.6446H147.632C148.349 27.9298 152.543 32.1247 157.829 32.8415V31.6185L157.829 31.6191Z" fill="#FF871D"/>
<path d="M170.023 22.6446C169.324 27.2614 165.665 30.9199 161.048 31.6191V32.8421C166.333 32.1253 170.528 27.9304 171.245 22.6452H170.022L170.023 22.6446Z" fill="#FF871D"/>
<path d="M173.133 20.9028L173.222 20.8835L163.03 18.8208L165.862 14.3899L161.481 17.2964L159.233 7.08567L159.213 7.18374V7.19767L159.188 7.08567L157.121 17.3007L152.741 14.5013L155.676 18.925L145.39 20.9034L155.784 23.0417L152.751 27.5205L157.219 24.5764L159.208 34.9174L159.231 34.8054L159.253 34.9174L159.351 34.4403V34.2236L161.342 24.5444L165.871 27.6126L162.936 23.158L173.178 20.9034H173.133V20.9028ZM148.492 20.9228L148.595 20.9028H155.336C155.335 20.9355 155.333 20.9682 155.333 21.0009C155.333 21.4865 155.42 21.9508 155.58 22.3806L148.492 20.9222V20.9228ZM159.213 10.0152V17.0307C158.685 17.0428 158.184 17.1578 157.727 17.3558L159.213 10.0152ZM154.516 25.7764L156.132 23.3904C156.359 23.6919 156.629 23.9595 156.931 24.1853L154.516 25.7764ZM156.089 18.6713L154.412 16.1431L156.978 17.7832C156.637 18.0302 156.337 18.3305 156.089 18.6713ZM159.351 31.2183V24.9724C159.82 24.9669 160.27 24.8804 160.686 24.726L159.351 31.2183ZM159.306 23.2706C158.474 23.2706 157.747 22.8226 157.352 22.1548C157.35 22.1524 157.349 22.1494 157.347 22.1469C157.329 22.1161 157.312 22.0852 157.295 22.0531C157.292 22.0477 157.289 22.0422 157.286 22.0368C157.271 22.0077 157.257 21.978 157.243 21.9478C157.24 21.9411 157.237 21.9338 157.234 21.9272C157.22 21.8981 157.208 21.8685 157.196 21.8388C157.194 21.8346 157.192 21.8303 157.191 21.8267C157.111 21.6239 157.06 21.4071 157.043 21.1807C157.043 21.1759 157.043 21.171 157.042 21.1656C157.04 21.1432 157.039 21.1208 157.037 21.0984C157.036 21.0657 157.035 21.0336 157.035 21.0003C157.035 20.9918 157.035 20.984 157.036 20.9755C157.039 20.6195 157.125 20.2829 157.275 19.9844C157.276 19.982 157.277 19.9796 157.278 19.9778C157.295 19.9445 157.313 19.9112 157.332 19.8785C157.333 19.8761 157.335 19.8737 157.336 19.8712C157.355 19.8385 157.375 19.8058 157.395 19.7738C157.396 19.7725 157.397 19.7713 157.398 19.7701C157.802 19.1447 158.505 18.7306 159.305 18.7306C160.558 18.7306 161.574 19.7471 161.574 21.0003C161.574 22.2535 160.558 23.27 159.305 23.27L159.306 23.2706ZM164.128 25.846L161.678 24.1866C161.989 23.9553 162.264 23.6792 162.496 23.368L164.128 25.846ZM162.538 18.6913C162.286 18.3402 161.979 18.032 161.629 17.7789L164.219 16.0608L162.538 18.6919L162.538 18.6913ZM163.276 20.9028C163.263 20.378 163.148 19.8779 162.951 19.4226L170.266 20.9028H163.276H163.276Z" fill="#FF871D"/>
</svg>
